<svg width="220" height="198" viewBox="0 0 220 198" fill="none" xmlns="http://www.w3.org/2000/svg">
<path d="M176.967 131.083C175.559 129.644 174.601 127.826 174.211 125.851C174.288 125.851 174.679 127.106 175.445 128.547C176.211 129.987 177.029 131.037 176.967 131.083Z" fill="#002733"/>
<path d="M177.451 123.998C177.628 125.125 177.716 126.264 177.713 127.404C177.803 128.541 177.803 129.683 177.713 130.82C177.539 129.693 177.453 128.555 177.456 127.414C177.365 126.277 177.364 125.135 177.451 123.998Z" fill="#002733"/>
<path d="M181.062 126.411C181.129 126.457 180.548 127.368 180.034 128.593C179.52 129.817 179.206 130.856 179.129 130.836C179.197 130.017 179.421 129.219 179.787 128.485C180.073 127.717 180.506 127.012 181.062 126.411Z" fill="#002733"/>
<path d="M207.945 155.856C207.212 155.17 206.616 154.351 206.186 153.443C205.681 152.573 205.341 151.617 205.184 150.624C205.266 150.624 205.657 151.879 206.423 153.319C207.189 154.76 208.007 155.805 207.945 155.856Z" fill="#002733"/>
<path d="M208.427 148.787C208.605 149.914 208.692 151.053 208.689 152.193C208.78 153.33 208.78 154.472 208.689 155.609C208.515 154.482 208.429 153.344 208.432 152.203C208.342 151.066 208.34 149.924 208.427 148.787Z" fill="#002733"/>
<path d="M212.039 151.184C212.106 151.23 211.525 152.141 211.011 153.366C210.496 154.59 210.183 155.629 210.105 155.609C210.171 154.79 210.394 153.991 210.764 153.258C211.047 152.489 211.481 151.784 212.039 151.184Z" fill="#002733"/>
<path d="M204.393 108.203C203.661 107.514 203.064 106.694 202.634 105.785C202.127 104.918 201.789 103.963 201.637 102.971C201.714 102.971 202.105 104.221 202.871 105.662C203.637 107.102 204.455 108.152 204.393 108.203Z" fill="#002733"/>
<path d="M205.004 101.386C205.178 102.513 205.264 103.652 205.261 104.792C205.349 105.929 205.349 107.071 205.261 108.208C205.083 107.082 204.996 105.943 204.999 104.802C204.91 103.665 204.912 102.523 205.004 101.386Z" fill="#002733"/>
<path d="M208.614 103.784C208.676 103.83 208.1 104.741 207.586 105.965C207.072 107.19 206.753 108.229 206.676 108.208C206.745 107.389 206.97 106.591 207.339 105.857C207.619 105.086 208.053 104.381 208.614 103.784Z" fill="#002733"/>
<path d="M94.4438 108.203C93.7118 107.514 93.1153 106.694 92.6851 105.785C92.1781 104.918 91.8396 103.963 91.6875 102.971C91.7646 102.971 92.1555 104.221 92.9217 105.662C93.6879 107.102 94.5107 108.152 94.4438 108.203Z" fill="#002733"/>
<path d="M95.056 101.386C95.2335 102.513 95.3212 103.652 95.3183 104.792C95.4084 105.929 95.4084 107.071 95.3183 108.208C95.1442 107.082 95.0582 105.943 95.0612 104.802C94.9709 103.666 94.9692 102.523 95.056 101.386Z" fill="#002733"/>
<path d="M98.666 103.784C98.7328 103.83 98.1517 104.741 97.6375 105.965C97.1232 107.19 96.8096 108.229 96.7324 108.208C96.7978 107.389 97.0214 106.591 97.3906 105.857C97.674 105.088 98.1075 104.383 98.666 103.784Z" fill="#002733"/>
<path d="M9.88131 180.809C9.14853 180.123 8.55186 179.304 8.12262 178.396C7.61511 177.528 7.2766 176.571 7.125 175.577C7.20214 175.551 7.59296 176.827 8.35917 178.267C9.12538 179.708 9.94302 180.758 9.88131 180.809Z" fill="#002733"/>
<path d="M10.3649 173.734C10.5423 174.863 10.63 176.003 10.6272 177.145C10.7173 178.282 10.7173 179.425 10.6272 180.562C10.3686 178.296 10.2844 176.013 10.3752 173.734H10.3649Z" fill="#002733"/>
<path d="M13.9745 176.132C14.0414 176.179 13.4603 177.094 12.9461 178.314C12.4318 179.533 12.1182 180.583 12.041 180.562C12.1091 179.742 12.3324 178.942 12.6992 178.206C12.9849 177.438 13.4182 176.733 13.9745 176.132Z" fill="#002733"/>
<path d="M81.5825 152.198C80.8505 151.509 80.2539 150.688 79.8238 149.78C79.3168 148.913 78.9783 147.958 78.8262 146.965C78.9033 146.94 79.2941 148.215 80.0603 149.656C80.8266 151.097 81.6442 152.146 81.5825 152.198Z" fill="#002733"/>
<path d="M82.0657 145.123C82.2428 146.25 82.3305 147.389 82.328 148.529C82.4181 149.668 82.4181 150.812 82.328 151.95C82.1541 150.822 82.0681 149.681 82.0709 148.539C81.9807 147.402 81.979 146.26 82.0657 145.123Z" fill="#002733"/>
<path d="M85.6757 147.521C85.7426 147.567 85.1615 148.483 84.6472 149.702C84.133 150.922 83.8193 151.966 83.7422 151.951C83.8096 151.131 84.033 150.331 84.4004 149.594C84.6861 148.827 85.1193 148.122 85.6757 147.521Z" fill="#002733"/>
<path d="M145.629 165.863C144.893 165.177 144.295 164.359 143.865 163.45C143.359 162.581 143.021 161.624 142.867 160.63C142.944 160.63 143.34 161.886 144.101 163.326C144.862 164.767 145.69 165.811 145.629 165.863Z" fill="#002733"/>
<path d="M146.115 158.793C146.289 159.92 146.377 161.059 146.377 162.199C146.464 163.337 146.464 164.479 146.377 165.616C146.203 164.489 146.117 163.35 146.12 162.21C146.03 161.073 146.028 159.931 146.115 158.793Z" fill="#002733"/>
<path d="M149.724 161.191C149.791 161.238 149.21 162.148 148.695 163.373C148.181 164.597 147.862 165.637 147.785 165.616C147.854 164.797 148.079 163.999 148.449 163.265C148.73 162.495 149.164 161.79 149.724 161.191Z" fill="#002733"/>
<path d="M3.6235 125.959C2.89149 125.269 2.29497 124.449 1.86481 123.54C1.35779 122.674 1.01929 121.719 0.867188 120.726C0.944323 120.726 1.33514 121.976 2.10136 123.417C2.86757 124.857 3.69035 125.907 3.6235 125.959Z" fill="#002733"/>
<path d="M4.11124 118.884C4.28535 120.011 4.37132 121.15 4.36836 122.29C4.45682 123.429 4.45682 124.573 4.36836 125.712C4.18236 124.584 4.08606 123.443 4.08038 122.301C4.00054 121.163 4.01086 120.02 4.11124 118.884Z" fill="#002733"/>
<path d="M7.72188 121.282C7.78873 121.328 7.20764 122.239 6.6934 123.463C6.17917 124.688 5.86034 125.727 5.7832 125.712C5.85111 124.891 6.07633 124.091 6.44657 123.355C6.72777 122.585 7.16155 121.88 7.72188 121.282Z" fill="#002733"/>
<path d="M110.066 191.69C108.653 190.254 107.693 188.435 107.305 186.458C107.382 186.458 107.773 187.713 108.539 189.154C109.305 190.595 110.128 191.639 110.066 191.69Z" fill="#002733"/>
<path d="M110.528 184.621C110.786 186.885 110.871 189.166 110.78 191.443C110.514 189.18 110.43 186.898 110.528 184.621Z" fill="#002733"/>
<path d="M114.159 187.019C114.226 187.06 113.645 187.976 113.131 189.201C112.617 190.425 112.298 191.464 112.221 191.444C112.29 190.625 112.515 189.827 112.884 189.092C113.166 188.323 113.599 187.618 114.159 187.019Z" fill="#002733"/>
<path d="M17.0236 62.624C17.0655 62.7388 17.0948 62.8579 17.111 62.979C17.1624 63.2363 17.2344 63.5758 17.3167 64.008C17.4915 64.929 17.7332 66.2255 18.0315 67.8307L20.3713 80.7806L20.4947 81.4649L20.1296 80.8732C19.452 79.785 18.6885 78.7527 17.8464 77.7862C15.9471 75.6073 13.6659 73.7939 11.115 72.4355C10.843 72.2696 10.5532 72.135 10.2511 72.0342C9.97121 71.9418 9.66619 71.964 9.4026 72.0959C9.28027 72.1649 9.17481 72.2602 9.09387 72.375C9.01293 72.4898 8.95854 72.6212 8.93465 72.7596C8.88058 73.0435 8.88058 73.335 8.93465 73.6188C9.0466 74.1728 9.21905 74.7129 9.44888 75.2292C9.64944 75.7437 9.86027 76.2222 10.0814 76.6749C10.775 78.1088 11.6198 79.4645 12.6012 80.7189C12.9508 81.1613 13.2337 81.4958 13.4239 81.7479C13.5317 81.8561 13.6282 81.9751 13.7119 82.1029C13.5951 82.0041 13.4852 81.8975 13.3828 81.7839C13.1771 81.5729 12.8686 81.2437 12.5189 80.8115C11.4995 79.5722 10.6248 78.2207 9.9117 76.783C9.68543 76.3302 9.46945 75.8466 9.25862 75.3321C9.01293 74.7936 8.82837 74.2293 8.70838 73.6497C8.64929 73.3386 8.64929 73.0192 8.70838 72.7082C8.73816 72.5377 8.80523 72.376 8.9048 72.2346C9.00437 72.0932 9.13398 71.9755 9.28433 71.8901C9.44122 71.8075 9.61307 71.7572 9.78972 71.7422C9.96636 71.7272 10.1442 71.7477 10.3128 71.8026C10.6398 71.8981 10.9541 72.0328 11.2487 72.204C13.8354 73.5638 16.1475 75.392 18.0675 77.5959C18.9207 78.5796 19.6929 79.6309 20.3764 80.7394L20.1347 80.8321C19.24 75.6871 18.4532 71.1338 17.8824 67.8565C17.615 66.2461 17.399 64.9444 17.2447 64.0235C17.1779 63.5913 17.1264 63.2466 17.0853 62.9945C17.0582 62.8722 17.0376 62.7485 17.0236 62.624Z" fill="#002733"/>
<path d="M21.122 63.375C21.1992 63.375 21.5231 66.1687 21.8471 69.6261C22.1711 73.0836 22.3613 75.8927 22.3048 75.903C22.2482 75.9133 21.9088 73.1093 21.5797 69.6519C21.2506 66.1944 21.05 63.3853 21.122 63.375Z" fill="#002733"/>
<path d="M155.395 189.211C155.328 189.198 155.264 189.175 155.204 189.144L154.659 188.928L152.577 188.064L151.075 187.431C150.53 187.189 149.949 186.916 149.321 186.613C148.067 186.011 146.611 185.373 145.074 184.555L142.636 183.279C141.793 182.836 140.939 182.317 140.065 181.813C138.26 180.82 136.409 179.626 134.45 178.396C130.246 175.644 126.2 172.658 122.329 169.454C118.488 166.212 114.833 162.756 111.381 159.103C109.838 157.389 108.296 155.779 107.02 154.179C106.362 153.387 105.704 152.635 105.118 151.884L103.41 149.723C102.315 148.355 101.431 147.038 100.618 145.911C100.217 145.34 99.8364 144.82 99.5022 144.326L98.6126 142.958L97.3938 141.064L97.0801 140.55C97.0419 140.495 97.0092 140.436 96.9824 140.375C97.0282 140.424 97.0695 140.478 97.1058 140.535C97.1881 140.658 97.2961 140.817 97.4401 141.018C97.7332 141.461 98.16 142.083 98.7 142.886L99.605 144.239C99.9444 144.728 100.335 145.268 100.741 145.808C101.564 146.93 102.459 148.231 103.56 149.59L105.256 151.751C105.848 152.502 106.511 153.243 107.169 154.03C108.47 155.62 109.977 157.225 111.54 158.928C114.995 162.564 118.646 166.008 122.478 169.243C126.34 172.441 130.375 175.424 134.563 178.18C136.517 179.415 138.358 180.614 140.153 181.617C141.047 182.132 141.896 182.646 142.724 183.094L145.151 184.38C146.694 185.224 148.123 185.872 149.373 186.484C150 186.788 150.576 187.076 151.116 187.323L152.607 187.976L154.664 188.887L155.179 189.129L155.395 189.211Z" fill="#002733"/>
<path d="M144.827 181.107C144.684 181.056 144.546 180.993 144.415 180.917L143.258 180.315C142.744 180.053 142.142 179.728 141.443 179.327C140.744 178.926 139.936 178.489 139.072 177.959C137.329 176.93 135.293 175.633 133.076 174.126C130.86 172.618 128.494 170.853 126.088 168.914C123.681 166.974 121.46 164.998 119.526 163.162C117.593 161.325 115.89 159.591 114.523 158.099C113.823 157.363 113.227 156.669 112.692 156.041C112.157 155.413 111.705 154.909 111.345 154.498L110.517 153.469C110.416 153.356 110.325 153.236 110.244 153.108C110.356 153.211 110.46 153.321 110.558 153.438L111.427 154.41C111.797 154.837 112.255 155.357 112.8 155.954C113.345 156.55 113.952 157.235 114.661 157.96C116.045 159.432 117.747 161.135 119.696 162.971C121.645 164.808 123.856 166.748 126.252 168.693C128.649 170.637 131.024 172.361 133.215 173.904C135.406 175.448 137.442 176.734 139.17 177.784C140.029 178.324 140.826 178.771 141.515 179.183C142.204 179.595 142.811 179.934 143.304 180.212L144.441 180.855C144.577 180.927 144.706 181.011 144.827 181.107Z" fill="#002733"/>
<path d="M130.069 24.7002C130.203 22.0711 127.395 20.6974 125.904 20.8312C124.413 20.965 123.122 21.9271 122.166 23.0795C121.209 24.232 120.525 25.5697 119.687 26.8045C118.849 28.0393 117.8 29.2072 116.411 29.7577C115.316 30.195 114.092 30.2105 112.971 30.5758C110.431 31.4092 108.739 34.0486 108.574 36.7188C108.477 38.3292 108.801 40.13 107.813 41.4059C106.373 43.2632 103.329 42.7076 101.54 44.1996C100.254 45.3006 100.043 47.338 100.804 48.8301C101.221 49.5683 101.79 50.2099 102.472 50.7127C103.154 51.2155 103.936 51.5681 104.764 51.7473C106.423 52.0988 108.134 52.1268 109.803 51.8296C113.233 51.3666 116.874 50.1935 118.818 47.3278C120.834 44.3591 124.13 38.6894 124.824 35.1702C125.853 29.9223 125.853 27.0103 130.656 24.7156L130.069 24.7002Z" fill="#002733"/>
<path d="M129.201 21.2583C130.715 19.7409 132.551 18.5832 134.572 17.8708C136.593 17.1583 138.749 16.9094 140.879 17.1423C143.378 17.4099 144.35 18.0581 146.088 18.763C147.831 19.4235 149.286 20.6743 150.202 22.2976C151.231 24.2629 152.074 26.4135 152.043 28.6516C152.012 30.8897 150.891 33.7194 150.439 35.9677C149.986 38.2161 147.929 40.7937 146.366 42.471L142.725 41.9205C139.527 41.6375 134.41 44.246 131.412 43.1398C128.414 42.0337 126.985 37.5112 126.136 34.1464C125.051 29.8144 125.956 24.3401 129.201 21.2583Z" fill="#002733"/>
<path d="M144.386 20.2241L142.412 19.7456L134.338 21.8499C133.799 21.8125 133.265 21.9788 132.842 22.316C132.42 22.6532 132.139 23.1368 132.055 23.6712L130.965 48.223L140.617 53.6972L141.517 47.5233C141.517 47.5233 146.721 47.657 148.768 41.7866C149.796 38.8694 150.516 33.9097 150.984 29.84C151.406 26.1717 148.907 20.8003 144.386 20.2241Z" fill="#FFBF9D"/>
<path d="M139.897 39.2609C139.982 38.9556 140.176 38.692 140.442 38.52C140.683 38.3602 140.971 38.2843 141.26 38.3038C141.548 38.3233 141.823 38.4372 142.041 38.6281C142.266 38.8493 142.428 39.1268 142.509 39.4318C142.59 39.7367 142.589 40.0579 142.504 40.3619C142.348 40.5293 142.158 40.6617 141.947 40.7504C141.736 40.8391 141.509 40.882 141.28 40.8764H141.064C140.705 40.8268 140.378 40.643 140.149 40.3619C140.026 40.2095 139.939 40.0312 139.896 39.8404C139.852 39.6497 139.852 39.4515 139.897 39.2609Z" fill="#FF7E43"/>
<path d="M148.346 34.6969C148.313 34.8995 148.201 35.081 148.036 35.2023C147.87 35.3235 147.664 35.3749 147.461 35.3452C147.361 35.3363 147.264 35.3073 147.175 35.2599C147.087 35.2126 147.009 35.1478 146.946 35.0694C146.883 34.9911 146.836 34.9009 146.809 34.8042C146.782 34.7075 146.775 34.6062 146.787 34.5066C146.82 34.304 146.932 34.1225 147.097 34.0013C147.262 33.88 147.469 33.8286 147.672 33.8583C147.772 33.8672 147.869 33.8962 147.958 33.9436C148.046 33.991 148.124 34.0558 148.187 34.1341C148.25 34.2124 148.297 34.3026 148.324 34.3993C148.351 34.4961 148.358 34.5973 148.346 34.6969Z" fill="#002733"/>
<path d="M149.359 31.7026C149.241 31.7849 148.732 31.2447 147.899 31.1007C147.066 30.9566 146.382 31.2602 146.31 31.1418C146.238 31.0235 146.402 30.9206 146.706 30.7765C147.111 30.5928 147.563 30.5372 148.002 30.617C148.436 30.6924 148.834 30.9052 149.138 31.2241C149.359 31.466 149.411 31.6666 149.359 31.7026Z" fill="#002733"/>
<path d="M143.152 37.625C143.617 37.5645 144.087 37.5645 144.551 37.625C144.767 37.625 144.973 37.625 145.034 37.4964C145.095 37.2812 145.086 37.0527 145.009 36.8429L144.669 35.1091C144.212 32.6395 143.919 30.6278 144.016 30.6124C144.114 30.597 144.572 32.5778 145.045 35.0422L145.353 36.7812C145.444 37.0628 145.431 37.3674 145.317 37.6404C145.274 37.7112 145.215 37.7707 145.144 37.8137C145.074 37.8567 144.994 37.882 144.911 37.8874C144.788 37.9037 144.664 37.9037 144.541 37.8874C144.069 37.8599 143.602 37.7717 143.152 37.625Z" fill="#002733"/>
<path d="M141.526 47.5185C138.671 47.0549 136.001 45.8082 133.812 43.917C133.812 43.917 135.211 48.4806 141.382 49.0054L141.526 47.5185Z" fill="#FF7E43"/>
<path d="M140.597 37.7581C140.73 37.7581 140.571 38.6791 141.229 39.4611C141.887 40.2432 142.87 40.3152 142.854 40.4438C142.839 40.5724 142.607 40.5827 142.201 40.521C141.669 40.4324 141.185 40.1592 140.833 39.7492C140.496 39.3578 140.324 38.8503 140.355 38.3344C140.391 37.9485 140.535 37.7427 140.597 37.7581Z" fill="#002733"/>
<path d="M149.435 28.7288C149.255 28.9037 148.643 28.6568 147.892 28.5848C147.142 28.5127 146.478 28.5848 146.35 28.3841C146.293 28.2812 146.411 28.096 146.704 27.9365C147.104 27.7448 147.551 27.6733 147.99 27.7307C148.43 27.7713 148.848 27.9394 149.193 28.2143C149.44 28.4355 149.512 28.6413 149.435 28.7288Z" fill="#002733"/>
<path d="M139.505 33.2204C139.475 33.4239 139.525 33.6311 139.645 33.7982C139.765 33.9653 139.945 34.0791 140.147 34.1157C140.245 34.1374 140.347 34.1393 140.445 34.1211C140.544 34.103 140.638 34.0652 140.722 34.0101C140.806 33.9549 140.878 33.8835 140.934 33.8C140.99 33.7165 141.028 33.6226 141.047 33.524C141.08 33.3214 141.031 33.1142 140.912 32.9474C140.792 32.7807 140.612 32.668 140.41 32.6339C140.312 32.6113 140.21 32.6087 140.111 32.6261C140.012 32.6436 139.917 32.6807 139.833 32.7354C139.749 32.7902 139.676 32.8613 139.62 32.9446C139.563 33.0279 139.524 33.1217 139.505 33.2204Z" fill="#002733"/>
<path d="M138.039 29.9742C138.122 30.0925 138.775 29.7375 139.613 29.8559C140.451 29.9742 141.007 30.4836 141.109 30.3704C141.212 30.2572 141.109 30.1337 140.847 29.9022C140.521 29.5972 140.107 29.4028 139.664 29.3465C139.229 29.2831 138.784 29.3587 138.394 29.5626C138.111 29.753 137.998 29.9228 138.039 29.9742Z" fill="#002733"/>
<path d="M138.875 27.3502C139.014 27.5612 139.692 27.4531 140.469 27.556C141.245 27.6589 141.888 27.8853 142.068 27.7104C142.151 27.6229 142.068 27.4171 141.811 27.1959C141.451 26.9102 141.018 26.7319 140.562 26.6814C140.111 26.6218 139.653 26.6913 139.24 26.882C138.937 27.0621 138.813 27.2422 138.875 27.3502Z" fill="#002733"/>
<path d="M131.833 34.0179C131.915 33.5703 131.586 32.4178 131.154 32.2686C130.002 31.8673 127.847 31.5792 127.282 34.589C126.516 38.7049 131.601 38.7049 131.632 38.602C131.599 37.0713 131.666 35.54 131.833 34.0179Z" fill="#FFBF9D"/>
<path d="M129.981 36.7959C129.981 36.7959 129.899 36.8319 129.765 36.8628C129.589 36.9 129.405 36.8687 129.251 36.7753C128.845 36.5335 128.608 35.7772 128.737 35.0312C128.794 34.6773 128.927 34.3402 129.128 34.0433C129.19 33.9216 129.281 33.8168 129.393 33.738C129.505 33.6591 129.635 33.6086 129.77 33.5906C129.857 33.5852 129.942 33.61 130.013 33.6606C130.083 33.7113 130.134 33.7847 130.156 33.8684C130.192 33.9919 130.156 34.069 130.156 34.0793C130.156 34.0896 130.254 34.0279 130.254 33.853C130.251 33.7465 130.211 33.6444 130.141 33.5648C130.041 33.4593 129.905 33.3951 129.76 33.3848C129.584 33.3894 129.412 33.4391 129.261 33.5292C129.11 33.6193 128.984 33.7467 128.896 33.8993C128.654 34.223 128.495 34.601 128.433 35.0003C128.305 35.8338 128.582 36.6878 129.148 36.9708C129.253 37.0218 129.368 37.0483 129.485 37.0483C129.602 37.0483 129.717 37.0218 129.822 36.9708C129.955 36.8936 129.991 36.8062 129.981 36.7959Z" fill="#6F4439"/>
<path d="M130.985 32.2583L131.9 33.4828C136.986 29.6858 147.219 19.8795 146.644 20.4712C144.666 19.4397 142.461 18.9197 140.231 18.9586C136.78 19.1181 130.157 20.0184 129.766 24.0212C129.375 28.024 130.985 32.2583 130.985 32.2583Z" fill="#002733"/>
<path d="M126.983 37.5884C126.977 37.4953 126.958 37.4035 126.926 37.3158C126.865 37.11 126.793 36.8579 126.705 36.5543C126.51 35.8906 126.253 34.9285 126.001 33.7246C125.718 32.3142 125.59 30.877 125.62 29.4388C125.663 28.596 125.783 27.7589 125.98 26.9384C126.211 26.0617 126.54 25.2142 126.962 24.4122C127.776 22.8547 128.887 21.4721 130.233 20.3425C132.088 18.7963 134.318 17.7655 136.697 17.3533C137.376 17.235 137.756 17.2041 137.756 17.1784C137.664 17.1658 137.571 17.1658 137.479 17.1784C137.212 17.1865 136.946 17.2088 136.681 17.2452C135.709 17.3702 134.754 17.6102 133.838 17.9604C132.471 18.4762 131.198 19.2113 130.068 20.1367C128.682 21.2674 127.54 22.6676 126.71 24.2527C126.276 25.0675 125.939 25.9311 125.708 26.8252C125.507 27.6692 125.388 28.5307 125.353 29.3977C125.336 30.8557 125.486 32.311 125.8 33.7349C126.016 34.6881 126.282 35.6293 126.597 36.5543C126.705 36.8527 126.798 37.0997 126.87 37.3055C126.892 37.4052 126.931 37.5007 126.983 37.5884Z" fill="#455A64"/>
<path d="M80.502 70.1146C80.502 69.8008 98.8448 61.7901 102.506 60.936C106.276 60.0562 113.089 54.901 118.607 53.0436C124.125 51.1863 122.669 63.9458 122.207 63.9664C121.744 63.987 103.18 67.9023 99.8527 69.3223C96.5256 70.7423 82.2555 73.9528 82.2555 73.9528L80.502 70.1146Z" fill="#FFBF9D"/>
<path d="M81.0368 70.0947C79.342 70.2516 77.6632 70.5493 76.0178 70.9848C74.3157 71.4993 70.9989 73.6653 70.7057 74.4319C70.4126 75.1985 70.9217 75.322 70.9217 75.322C70.9217 75.322 68.3814 76.2893 68.983 76.9787C69.5847 77.6681 69.9395 77.4932 69.9035 77.4932C69.8675 77.4932 67.9443 78.6868 68.3917 79.1036C68.8391 79.5203 68.3917 79.8547 70.3612 79.0212C72.3307 78.1878 73.2512 77.8225 73.2512 77.8225C73.2512 77.8225 70.0372 79.8805 70.4846 80.3075C70.932 80.7345 71.3383 80.9866 72.3153 80.3744C73.2924 79.7621 77.5399 77.4675 78.0439 77.5138C78.5479 77.5601 78.9027 78.3061 78.7947 79.2065C78.6867 80.1068 78.2342 82.031 79.2369 82.0259C80.2397 82.0208 80.1111 81.4857 80.2654 80.4361C80.4197 79.3865 81.9212 76.2069 82.3223 75.5072C82.7235 74.8075 82.7543 73.0119 82.7543 73.0119L81.0368 70.0947Z" fill="#AE7461"/>
<path d="M76.4188 77.7604C75.7525 77.3001 75.1872 76.7083 74.7578 76.0214C74.2563 75.3871 73.8937 74.6544 73.6934 73.8708C73.7654 73.84 74.2076 74.8021 74.979 75.8671C75.7503 76.9321 76.4754 77.6935 76.4188 77.7604Z" fill="#6F4439"/>
<path d="M79.3664 73.1866C79.0545 73.6443 78.7794 74.126 78.5436 74.6272C78.3848 75.1595 78.2662 75.7029 78.1888 76.253C78.0403 75.6798 78.0739 75.0746 78.2849 74.5214C78.496 73.9682 78.874 73.4944 79.3664 73.166V73.1866Z" fill="#6F4439"/>
<path d="M74.4853 75.6357C73.7122 76.0239 72.9091 76.3491 72.0838 76.6081C71.2904 76.9543 70.47 77.2348 69.6309 77.4468C70.3688 76.9855 71.1618 76.619 71.9912 76.356C72.7891 76.0123 73.627 75.7703 74.4853 75.6357Z" fill="#6F4439"/>
<path d="M73.5034 74.4422C73.0621 74.6753 72.5917 74.8484 72.1046 74.9567C71.6458 75.1542 71.1637 75.2926 70.6699 75.3683C71.0657 75.0491 71.5278 74.8224 72.0224 74.7046C72.4914 74.5116 72.9966 74.4221 73.5034 74.4422Z" fill="#6F4439"/>
<path d="M131.433 100.846C128.474 104.247 126.888 108.629 126.985 113.137C127.057 118.93 128.332 121.132 133.737 126.648C133.737 126.648 147.246 140.385 148.773 139.196C150.3 138.008 158.754 127.522 158.754 127.522L144.793 110.878L131.433 100.846Z" fill="#007499"/>
<path d="M145.32 136.573C145.32 136.573 158.351 148.267 159.38 150.876C160.031 152.55 160.799 154.176 161.678 155.743L172.894 152.409C172.894 152.409 173.171 148.54 171.387 145.412C169.603 142.283 158.732 127.559 158.732 127.559L145.32 136.573Z" fill="#FFBF9D"/>
<path d="M161.398 155.269C161.398 155.269 163.764 166.382 167.837 171.98C171.909 177.578 185.321 190.641 185.321 190.641L192.345 182.743C192.345 182.743 188.103 181.164 186.108 179.327C184.112 177.49 173.092 149.167 172.737 149.532C172.383 149.898 161.398 155.269 161.398 155.269Z" fill="#00A77F"/>
<path opacity="0.3" d="M154.574 145.293C154.574 145.293 156.59 140.544 157.022 137.195C157.454 133.846 158.714 127.558 158.714 127.558L157.253 125.423L152.625 143.364L154.574 145.293Z" fill="#FF7E43"/>
<path d="M181.867 187.96C181.867 187.96 182.999 192.076 184.438 192.832C185.878 193.589 186.017 196.022 186.783 196.151C187.55 196.279 191.756 193.537 192.738 192.385C193.72 191.232 194.708 188.747 195.494 187.924C196.281 187.101 196.759 187.595 198.626 186.525C200.493 185.454 204.031 181.745 204.869 179.558C205.707 177.372 205.352 175.72 204.668 175.242C204.252 174.892 203.743 174.674 203.203 174.613C202.663 174.553 202.117 174.653 201.634 174.902C200.709 175.417 199.711 176.96 196.749 178.071C195.106 178.699 193.399 179.143 191.658 179.394C191.658 179.394 188.753 177.531 187.848 178.252C186.943 178.972 185.935 181.277 186.716 182.409C187.287 183.232 187.056 184.688 185.95 186.283C184.845 187.878 184.881 187.61 183.811 187.857C182.741 188.104 182.217 187.332 181.867 187.96Z" fill="#002733"/>
<path d="M191.779 182.373C191.724 181.86 191.707 181.344 191.727 180.829C191.838 180.325 191.986 179.83 192.169 179.348C191.954 179.525 191.779 179.745 191.654 179.994C191.529 180.243 191.458 180.515 191.444 180.793C191.384 181.065 191.383 181.347 191.441 181.619C191.498 181.892 191.614 182.149 191.779 182.373Z" fill="white"/>
<path d="M194.479 181.257C194.458 180.884 194.396 180.515 194.294 180.156C194.196 179.564 194.207 179.065 194.124 179.055C193.945 179.41 193.905 179.819 194.011 180.202C194.114 180.845 194.412 181.293 194.479 181.257Z" fill="white"/>
<path opacity="0.3" d="M193.736 190.883L189.165 192.714L184.449 192.838C183.822 192.503 183.251 191.546 182.809 190.564L182.839 190.229C185.018 190.609 187.259 190.37 189.309 189.54C192.533 188.151 196.986 185.892 198.38 184.745C200.418 183.036 202.078 180.921 203.255 178.535C204 176.919 203.872 175.448 204.021 174.861C204.251 174.968 204.472 175.095 204.679 175.242C205.363 175.721 205.708 177.377 204.88 179.559C204.052 181.74 200.509 185.45 198.637 186.525C196.765 187.6 196.287 187.101 195.505 187.924C194.986 188.47 194.374 189.746 193.736 190.883Z" fill="white"/>
<path d="M184.451 192.833C184.114 192.623 183.827 192.34 183.613 192.004C184.4 192.051 187.578 191.274 189.008 190.759C191.201 189.982 193.345 189.07 195.425 188.027C194.654 188.923 193.697 191.279 192.751 192.385C191.805 193.491 187.563 196.28 186.796 196.151C186.03 196.023 185.896 193.599 184.451 192.833Z" fill="#455A64"/>
<path d="M197.006 180.331C197.078 180.295 196.924 179.816 196.765 179.24C196.702 178.87 196.58 178.512 196.405 178.18C196.327 178.18 196.317 178.695 196.492 179.317C196.667 179.94 196.919 180.362 197.006 180.331Z" fill="white"/>
<path d="M191.002 183.052C190.367 183.211 189.721 183.319 189.069 183.376C188.416 183.342 187.766 183.261 187.125 183.135C187.693 183.532 188.384 183.714 189.074 183.649C189.768 183.688 190.452 183.477 191.002 183.052Z" fill="#455A64"/>
<path opacity="0.3" d="M161.91 157.44C162.188 158.521 162.574 159.92 163.062 161.469C165.536 160.352 173.213 156.483 175.373 155.434C174.776 154.009 174.247 152.769 173.83 151.791C171.67 152.774 164.43 156.149 161.91 157.44Z" fill="#002733"/>
<path d="M136.389 121.168C136.389 121.168 135.648 128.886 135.797 128.932C135.946 128.979 139.448 147.629 139.582 147.814C139.716 147.999 143.552 151.93 148.113 148.982C152.674 146.034 152.998 141.62 153.862 139.623C154.726 137.627 157.189 125.104 157.189 125.104L136.702 121.158" fill="#FFBF9D"/>
<path d="M137.269 92.5622C135.726 93.0767 129.606 100.532 130.018 105.018C130.429 109.505 131.082 114.32 135.834 117.726L135.572 122.244L157.54 125.495C157.54 125.495 158.162 106.346 157.54 102.096C157.065 99.2013 156.331 96.3551 155.349 93.5912C148.772 89.7634 142.015 89.0122 137.269 92.5622Z" fill="#007499"/>
<path d="M142.051 134.092C137.84 129.126 132.013 125.803 125.596 124.708C114.797 122.876 109.14 123.427 105.458 121.492C105.458 121.492 100.573 119.795 100.388 119.949C100.203 120.103 96.0117 125.768 96.0117 125.768L97.6573 125.989C97.6573 125.989 104.276 129.668 111.326 133.238C118.376 136.809 138.889 148.267 140.01 148.241C141.131 148.215 144.16 146.698 144.792 143.441C145.497 139.798 143.676 137.133 142.051 134.092Z" fill="#00A77F"/>
<path d="M145.1 106.402C145.1 106.459 144.272 106.67 143.043 107.318L142.565 107.575L142.051 107.894C141.706 108.1 141.372 108.378 141.022 108.646C140.259 109.269 139.552 109.957 138.909 110.704C138.282 111.468 137.723 112.286 137.237 113.147C137.032 113.554 136.816 113.929 136.666 114.305L136.435 114.82L136.255 115.334C135.808 116.641 135.715 117.505 135.659 117.495C135.65 117.291 135.665 117.088 135.705 116.888C135.732 116.652 135.775 116.418 135.833 116.188C135.895 115.88 135.976 115.576 136.075 115.277C136.317 114.493 136.634 113.733 137.021 113.008C137.5 112.124 138.063 111.288 138.703 110.513C139.355 109.745 140.082 109.044 140.873 108.419C141.248 108.152 141.593 107.879 141.953 107.673L142.467 107.364L142.981 107.117C143.262 106.974 143.55 106.847 143.845 106.737C144.063 106.644 144.289 106.568 144.519 106.51C144.708 106.453 144.903 106.417 145.1 106.402Z" fill="#455A64"/>
<path d="M137.845 105.836C137.881 105.872 137.367 106.351 136.816 107.303C136.096 108.554 135.627 109.935 135.438 111.367C135.381 112.161 135.391 112.958 135.469 113.749L135.649 115.71C135.695 116.265 135.721 116.739 135.721 117.037C135.734 117.201 135.722 117.366 135.685 117.526C135.644 117.526 135.613 116.836 135.459 115.73C135.392 115.175 135.299 114.511 135.222 113.775C135.127 112.967 135.109 112.152 135.171 111.342C135.361 109.879 135.866 108.474 136.652 107.226C136.895 106.856 137.174 106.511 137.485 106.197C137.583 106.057 137.705 105.935 137.845 105.836Z" fill="#455A64"/>
<path d="M157.544 125.346H157.431L157.117 125.31L155.909 125.161L151.476 124.574L136.851 122.547L135.206 122.316H135.077V122.192L135.535 117.531L135.586 117.649C134.782 117.002 134.087 116.229 133.529 115.36C133.006 114.583 132.546 113.765 132.151 112.916C131.492 111.518 130.967 110.06 130.583 108.563C130.319 107.589 130.137 106.594 130.037 105.589C130.009 105.321 129.993 105.052 129.991 104.782C129.982 104.689 129.982 104.596 129.991 104.504C130.017 104.504 130.027 104.885 130.115 105.579C130.25 106.574 130.456 107.557 130.732 108.522C131.142 109.996 131.682 111.43 132.346 112.808C132.745 113.642 133.206 114.445 133.725 115.211C134.276 116.053 134.958 116.801 135.746 117.428L135.802 117.469V117.541C135.663 119.013 135.514 120.577 135.36 122.203L135.247 122.053L136.892 122.285L151.507 124.394L155.929 125.063L157.133 125.264C157.272 125.278 157.41 125.306 157.544 125.346Z" fill="#455A64"/>
<path d="M106.996 122.146C106.996 122.146 107.644 117.66 106.559 116.291C105.474 114.923 106.374 112.499 105.68 112.046C104.986 111.594 99.7147 112.479 98.2697 113.178C96.8247 113.878 94.7935 115.885 93.6776 116.353C92.5617 116.821 92.2943 116.137 90.0162 116.384C87.7381 116.631 82.7037 118.74 80.9605 120.5C79.2172 122.259 78.8418 124.034 79.3098 124.796C79.7777 125.557 80.6314 126.571 82.1227 126.422C83.2488 126.313 84.8893 125.218 88.2472 125.393C90.1166 125.482 91.9704 125.777 93.7753 126.272C93.7753 126.272 95.8322 129.334 97.0098 129.02C98.1874 128.706 100.167 126.885 99.8844 125.418C99.6787 124.389 100.522 123.052 102.286 121.966C104.05 120.88 103.895 121.127 105.047 121.349C106.199 121.57 106.384 122.609 106.996 122.146Z" fill="#002733"/>
<path d="M94.9206 123.355C94.756 123.884 94.5532 124.4 94.3138 124.899C93.9908 125.345 93.6332 125.765 93.2441 126.154C93.7977 125.949 94.2651 125.562 94.5697 125.056C94.8744 124.551 94.9981 123.956 94.9206 123.371V123.355Z" fill="white"/>
<path d="M91.8309 123.298C91.7435 123.298 91.7075 123.813 91.5429 124.451C91.4019 124.822 91.2985 125.206 91.2344 125.598C91.3012 125.644 91.6663 125.202 91.836 124.528C91.9869 124.132 91.9851 123.693 91.8309 123.298Z" fill="white"/>
<path opacity="0.3" d="M96.6433 114.223L101.889 114.387L106.542 116.286C107.01 116.877 107.154 118.056 107.17 119.203L107 119.517C105.034 118.214 102.744 117.489 100.387 117.423C96.6485 117.423 91.3364 117.706 89.4903 118.231C86.7732 119.026 84.2514 120.379 82.0853 122.202C80.6711 123.458 80.1723 124.945 79.7712 125.459C79.5932 125.256 79.4332 125.037 79.293 124.806C78.825 124.044 79.1953 122.285 80.9437 120.51C82.6921 118.735 87.7213 116.625 89.9994 116.394C92.2775 116.162 92.5397 116.831 93.6607 116.363C94.4115 116.044 95.5531 115.061 96.6433 114.223Z" fill="white"/>
<path d="M106.558 116.281C106.798 116.628 106.956 117.026 107.021 117.443C106.27 117.063 102.84 116.461 101.226 116.353C98.7526 116.175 96.2709 116.151 93.7949 116.281C94.9262 115.735 96.8803 113.847 98.2688 113.168C99.6572 112.489 104.99 111.583 105.679 112.036C106.368 112.489 105.468 114.922 106.558 116.281Z" fill="#455A64"/>
<path d="M88.9656 123.124C88.8782 123.124 88.8268 123.639 88.7394 124.292C88.6519 124.945 88.5542 125.455 88.6365 125.48C88.7188 125.506 88.9451 125.002 89.0376 124.333C89.139 123.932 89.1139 123.51 88.9656 123.124Z" fill="white"/>
<path d="M95.9902 123.031C95.9902 123.123 96.9519 123.092 98.0112 123.545C98.6358 123.856 99.2357 124.213 99.8059 124.615C99.3871 124.015 98.8051 123.547 98.129 123.267C97.4528 122.987 96.7106 122.907 95.9902 123.036V123.031Z" fill="#455A64"/>
<path opacity="0.3" d="M133.895 127.548C133.951 127.636 141.608 138.867 135.283 145.998C136.857 146.816 138.137 147.459 138.975 147.84C139.897 146.268 140.649 144.602 141.217 142.87C142.302 139.227 140.955 133.053 138.065 130.249C136.755 129.23 135.36 128.327 133.895 127.548Z" fill="#002733"/>
<path d="M130.156 47.8989C128.66 48.3105 120.427 52.0149 120.015 56.1309C119.604 60.2468 126.613 88.2612 126.613 88.2612C126.613 88.2612 122.067 94.5741 127.374 94.2654C127.374 94.2654 126.047 105.975 127.575 106.263C129.102 106.552 133.416 91.3945 144.894 91.2556C144.894 91.2556 154.274 91.77 156.583 97.5067C156.583 97.5067 152.011 83.2448 151.78 80.4563C151.548 77.6677 153.873 74.7968 154.279 67.6453C154.685 60.4938 149.137 52.8227 146.051 51.4387C142.966 50.0547 130.156 47.8989 130.156 47.8989Z" fill="#00A77F"/>
<path d="M149.945 92.0997C149.945 92.0997 149.945 91.7499 149.898 91.1273C149.84 90.2427 149.715 89.3638 149.523 88.4983C149.286 87.4024 148.911 86.1161 148.494 84.6807C148.031 83.123 147.719 81.524 147.564 79.9062C147.361 76.9643 147.513 74.0087 148.016 71.1031C148.186 69.9867 148.35 69.0914 148.469 68.4741C148.525 68.1859 148.572 67.9596 148.608 67.7589C148.617 67.6747 148.642 67.5929 148.68 67.5171C148.686 67.601 148.686 67.6853 148.68 67.7692C148.654 67.9647 148.623 68.2014 148.587 68.4895C148.494 69.1532 148.366 70.033 148.217 71.1289C147.773 74.022 147.649 76.9551 147.846 79.8753C148.001 81.4778 148.304 83.0624 148.752 84.6087C149.137 86.0441 149.502 87.3406 149.713 88.4571C149.893 89.3328 149.991 90.2232 150.006 91.117C150.019 91.3587 150.019 91.6008 150.006 91.8425C150 91.931 149.979 92.0179 149.945 92.0997Z" fill="white"/>
<path d="M151.457 92.9022C151.457 92.9022 151.457 92.5524 151.411 91.9247C151.353 91.0397 151.226 90.1607 151.03 89.2956C150.799 88.1997 150.418 86.9135 150.002 85.4781C149.537 83.9221 149.224 82.3249 149.066 80.7087C148.866 77.7668 149.018 74.8114 149.519 71.9056C149.693 70.7892 149.858 69.8888 149.971 69.2714C150.028 68.9884 150.079 68.7569 150.115 68.5614C150.129 68.477 150.151 68.3943 150.182 68.3145C150.196 68.3979 150.196 68.4831 150.182 68.5666C150.182 68.7621 150.131 68.9987 150.089 69.2869C149.997 69.9506 149.873 70.8303 149.724 71.9314C149.279 74.8242 149.153 77.7574 149.349 80.6778C149.503 82.2786 149.806 83.8615 150.254 85.406C150.645 86.8466 151.005 88.1431 151.216 89.2545C151.399 90.1296 151.499 91.0203 151.514 91.9144C151.521 92.1582 151.513 92.4023 151.488 92.645C151.491 92.7318 151.481 92.8186 151.457 92.9022Z" fill="white"/>
<path d="M113.613 53.9495C113.613 53.9495 114.472 66.2666 116.894 65.7006C119.316 65.1347 127.179 63.5243 127.179 63.5243L130.141 47.899C130.141 47.899 128.012 46.9421 113.613 53.9495Z" fill="#00A77F"/>
<path d="M128.485 91.6673C128.579 91.6064 128.679 91.5547 128.783 91.5129L129.657 91.1168C130.418 90.7772 131.519 90.2833 132.866 89.6504C134.214 89.0176 135.808 88.2407 137.561 87.3404C138.435 86.8927 139.351 86.4091 140.292 85.8998C140.75 85.6425 141.259 85.3853 141.701 85.1023C142.143 84.8193 142.565 84.382 142.41 83.8675C142.256 83.353 141.67 83.2244 141.156 83.2192C140.889 83.2189 140.622 83.2413 140.359 83.2861C140.091 83.3273 139.819 83.353 139.556 83.3993C138.502 83.5639 137.5 83.7749 136.543 84.0219C134.858 84.451 133.209 85.0118 131.612 85.6991C130.531 86.1586 129.476 86.6738 128.449 87.2426L127.616 87.7108C127.52 87.7708 127.418 87.8208 127.312 87.86C127.398 87.7881 127.489 87.7228 127.585 87.6645C127.77 87.541 128.038 87.3609 128.398 87.15C129.408 86.5418 130.456 85.9971 131.534 85.519C133.131 84.7991 134.786 84.2157 136.481 83.7749C137.481 83.5084 138.494 83.2937 139.515 83.1318C139.783 83.0855 140.03 83.0546 140.323 83.0134C140.6 82.9658 140.88 82.9417 141.161 82.9414C141.458 82.9414 141.752 82.9954 142.03 83.1009C142.183 83.1564 142.32 83.2474 142.431 83.3663C142.542 83.4853 142.623 83.6288 142.668 83.7852C142.706 83.9415 142.709 84.1045 142.676 84.2622C142.643 84.4198 142.575 84.568 142.477 84.6958C142.3 84.9324 142.082 85.1361 141.835 85.2978C141.351 85.6116 140.873 85.8432 140.4 86.1056C139.454 86.6132 138.54 87.09 137.659 87.5359C135.895 88.4259 134.291 89.1823 132.928 89.7945C131.565 90.4068 130.46 90.8749 129.683 91.1888L128.788 91.5386C128.693 91.594 128.591 91.6372 128.485 91.6673Z" fill="#002733"/>
<path d="M118.967 55.4414C119.042 55.5902 119.099 55.7473 119.136 55.9096C119.234 56.208 119.352 56.6505 119.496 57.201C119.784 58.2969 120.144 59.8198 120.525 61.5022C120.905 63.1846 121.209 64.6457 121.461 65.8239C121.616 66.4143 121.733 67.0141 121.811 67.6195C121.734 67.4734 121.677 67.3177 121.641 67.1565C121.543 66.8581 121.42 66.4156 121.281 65.8651C120.993 64.7692 120.633 63.2463 120.252 61.5639C119.872 59.8815 119.568 58.4203 119.316 57.2421C119.16 56.6503 119.044 56.0487 118.967 55.4414Z" fill="#002733"/>
<path d="M130.871 70.9025L131.293 73.192L125.636 74.221L125.297 72.4048L127.303 68.9989C127.583 68.6247 127.703 68.1547 127.637 67.692C127.63 67.5975 127.602 67.5056 127.555 67.4233C127.508 67.341 127.443 67.2703 127.365 67.2165C127.287 67.1627 127.198 67.1271 127.104 67.1123C127.011 67.0975 126.915 67.104 126.824 67.1312C126.588 67.1897 126.375 67.32 126.216 67.5043C126.057 67.6886 125.958 67.9177 125.935 68.1602L123.939 67.3782C124.065 66.7255 124.389 66.1277 124.868 65.667C125.347 65.2063 125.957 64.9054 126.613 64.8057C128.285 64.497 129.663 65.3562 129.971 67.0232C130.131 67.8927 130.095 68.7004 129.282 70.0433L128.485 71.3707L130.871 70.9025Z" fill="white"/>
<path d="M133.5 63.7095L135.125 72.4868L132.749 72.9241L131.536 66.3746L130.327 66.5958L129.916 64.3629L133.5 63.7095Z" fill="white"/>
<path d="M136.801 62.4028C136.757 62.6493 136.688 62.8906 136.595 63.1231C136.451 63.581 136.215 64.2344 135.901 65.0371C134.247 69.2115 132.029 73.1393 129.308 76.711C128.794 77.3901 128.347 77.9355 128.028 78.2956C127.874 78.4934 127.702 78.676 127.514 78.841C127.637 78.6246 127.78 78.4197 127.94 78.2287C128.228 77.848 128.645 77.2924 129.144 76.5978C131.768 72.98 133.976 69.0778 135.726 64.965C136.06 64.1727 136.323 63.5347 136.497 63.0871C136.579 62.8507 136.68 62.6218 136.801 62.4028Z" fill="#002733"/>
<path d="M138.755 67.1981C138.442 67.6877 138.098 68.1568 137.726 68.6026C137.073 69.4619 136.183 70.6606 135.299 72.0292C134.414 73.3978 133.658 74.6891 133.134 75.6307C132.874 76.1522 132.582 76.6573 132.26 77.1433C132.287 76.9878 132.341 76.8382 132.419 76.7008C132.537 76.4178 132.723 76.0268 132.964 75.5432C133.599 74.2864 134.304 73.0667 135.078 71.8903C135.846 70.7105 136.681 69.5751 137.577 68.4895C137.922 68.0779 138.209 67.7486 138.415 67.5273C138.621 67.3061 138.744 67.1826 138.755 67.1981Z" fill="#002733"/>
<g opacity="0.3">
<path d="M132.795 76.0727C134.039 75.2157 135.094 74.1131 135.896 72.8328C136.698 71.5525 137.23 70.1215 137.459 68.6279C135.963 70.7631 134.59 73.1452 132.795 76.0727Z" fill="#002733"/>
</g>
<path d="M115.558 53.0234C114.936 53.3167 114.303 53.6203 113.635 53.9495C113.635 53.9495 114.494 66.2666 116.916 65.7006L118.047 65.4485C117.579 62.7371 115.563 53.0492 115.558 53.0234Z" fill="#002733"/>
<path d="M150.797 67.8098C151.285 68.3706 161.966 76.0675 166.928 77.7293C171.891 79.3911 196.405 80.6979 196.405 80.6979L196.178 75.2288L168.718 67.8612L155.605 57.916L150.797 67.8098Z" fill="#FFBF9D"/>
<path opacity="0.3" d="M146.859 64.9395L152.773 75.7439C152.773 75.7439 154.059 72.0395 153.802 70.7327C153.544 69.4259 146.859 64.9395 146.859 64.9395Z" fill="#002733"/>
<path d="M143.816 62.6036C144.181 62.938 153.34 72.1166 155.499 71.35C157.659 70.5834 160.014 59.8562 160.014 59.8562C160.014 59.8562 150.547 50.2711 145.451 51.2075C140.355 52.1438 143.816 62.6036 143.816 62.6036Z" fill="#00A77F"/>
<path d="M145.755 63.8742C145.631 63.7408 145.524 63.5921 145.437 63.4317C145.246 63.1333 144.984 62.7011 144.67 62.1558C143.826 60.738 143.238 59.1828 142.932 57.5613C142.65 55.9067 142.969 54.2056 143.832 52.7662C144.102 52.3411 144.439 51.9623 144.83 51.6446C144.969 51.5238 145.125 51.4233 145.293 51.3462C144.42 52.0913 143.765 53.0581 143.396 54.1447C143.026 55.2313 142.957 56.3974 143.194 57.5202C143.499 59.112 144.055 60.6454 144.84 62.0632C145.176 62.6509 145.481 63.2554 145.755 63.8742Z" fill="#002733"/>
<path d="M194.956 75.1827C195.218 75.1313 196.658 75.4245 197.424 74.7711C198.305 73.9336 199.32 73.2501 200.428 72.7491C201.687 72.2346 204.279 72.0186 204.804 71.8179C205.328 71.6172 204.624 72.7954 204.845 72.8469C205.066 72.8983 207.73 73.3614 208.275 73.7215C208.82 74.0817 209.134 76.2426 208.573 76.577C208.287 76.7542 207.981 76.8991 207.663 77.0092C207.663 77.0092 208.105 78.0948 207.637 78.5115L207.169 78.9282C207.151 79.1655 207.067 79.3932 206.928 79.5857C206.788 79.7783 206.597 79.9283 206.377 80.019C205.69 80.2175 204.966 80.2492 204.264 80.1116C204.264 80.1116 201.806 80.3894 199.173 80.8062C197.681 81.0766 196.142 80.862 194.781 80.1939L194.956 75.1827Z" fill="#FFBF9D"/>
<path d="M204.977 72.8367C204.977 72.9139 204.134 72.8367 203.115 72.8882C202.097 72.9396 201.274 73.0991 201.254 73.022C201.829 72.7438 202.462 72.6062 203.1 72.6206C203.734 72.5449 204.377 72.6189 204.977 72.8367Z" fill="#6F4439"/>
<path d="M204.632 74.1279C205.989 74.6745 207.112 75.6794 207.805 76.9679C207.738 77.0142 207.167 76.2477 206.288 75.4656C205.409 74.6836 204.57 74.1948 204.632 74.1279Z" fill="#6F4439"/>
<path d="M207.718 75.3524C207.769 75.4039 207.651 75.5994 207.42 75.7434C207.188 75.8875 206.962 75.9081 206.936 75.836C206.911 75.764 207.075 75.6405 207.276 75.517C207.476 75.3936 207.672 75.2958 207.718 75.3524Z" fill="#6F4439"/>
<path d="M207.852 78.4188C207.79 78.4651 207.137 77.7037 206.176 76.9525C205.214 76.2014 204.324 75.7332 204.36 75.6611C205.804 76.1568 207.035 77.1294 207.852 78.4188Z" fill="#6F4439"/>
<path d="M206.905 78.8565C206.869 78.8565 206.844 78.7228 206.664 78.625C206.404 78.4996 206.138 78.388 205.867 78.2906C205.458 78.1793 205.065 78.015 204.699 77.8018C205.133 77.7596 205.57 77.8417 205.959 78.0385C206.251 78.1418 206.527 78.2874 206.777 78.4707C206.988 78.6559 206.946 78.872 206.905 78.8565Z" fill="#6F4439"/>
<path d="M153.273 70.6296C154.235 71.2006 155.032 71.4991 155.5 71.3241C157.66 70.5369 160.015 59.8303 160.015 59.8303C160.015 59.8303 159.362 59.1769 158.318 58.2302C158.251 58.1787 155.989 67.6352 153.273 70.6296Z" fill="#002733"/>
<path d="M157.504 62.984C157.406 62.9376 157.314 62.8788 157.231 62.8091L156.475 62.2946C155.822 61.8212 154.871 61.1421 153.667 60.3343C150.527 58.2272 147.241 56.3446 143.835 54.7006L143.763 54.6697V54.5925C143.763 54.4331 143.732 54.2581 143.722 54.078C143.712 53.898 143.691 53.7282 143.676 53.5636V53.332L143.887 53.4298C147.306 55.0791 150.591 56.992 153.714 59.151C154.902 59.9793 155.837 60.6945 156.475 61.1832C156.794 61.4302 157.036 61.6309 157.2 61.7646C157.288 61.828 157.369 61.9004 157.442 61.9807C157.343 61.9358 157.251 61.8769 157.169 61.8058L156.413 61.2913C155.76 60.818 154.809 60.1388 153.606 59.3311C150.464 57.2171 147.179 55.3259 143.773 53.6716L143.953 53.5121C143.953 53.6716 143.953 53.8465 143.995 54.0266C144.036 54.2067 144.025 54.3713 144.041 54.5411L143.964 54.4279C147.382 56.0759 150.666 57.9888 153.786 60.1491C154.979 60.9775 155.915 61.6926 156.552 62.2071C156.871 62.4541 157.113 62.6547 157.277 62.7885C157.359 62.8462 157.435 62.9116 157.504 62.984Z" fill="white"/>
<path d="M26.7082 107.452C26.7082 107.452 23.1085 106.423 22.3063 102.667C21.5041 98.9116 19.0101 84.2742 20.9024 84.0941C22.7948 83.914 26.8676 87.1811 26.8676 87.1811C26.8676 87.1811 35.2188 97.3681 33.9589 100.609C32.699 103.851 27.6081 107.447 26.7082 107.452Z" fill="#455A64"/>
<path d="M21.5653 84.5002C21.5653 84.5002 8.39566 83.9497 6.71411 88.4567C5.03255 92.9637 7.31576 100.064 8.0357 102.59L22.8457 100.846C22.8457 100.846 31.1404 106.423 33.547 103.418C35.9536 100.414 28.2503 84.2327 21.5653 84.5002Z" fill="#FFBF9D"/>
<path d="M7.13126 100.846C7.04384 101.417 9.40933 109.778 11.6051 114.341C13.8009 118.905 24.5228 137.144 24.5228 138.749C24.5706 140.081 24.7115 141.409 24.9444 142.721L36.4273 139.948C36.4273 139.948 31.6141 134.288 30.2565 129.39C28.8989 124.492 27.9424 110.282 26.5283 107.02C25.5258 104.836 24.2914 102.766 22.8463 100.846C16.7783 100.501 8.0826 98.994 7.13126 100.846Z" fill="#00A77F"/>
<path d="M32.6989 133.588C32.6989 133.588 37.1368 134.916 37.939 136.506C38.7412 138.095 41.3741 138.301 41.4975 139.14C41.6209 139.978 38.5407 144.485 37.2705 145.53C36.0003 146.574 33.2749 147.588 32.3595 148.432C31.4442 149.275 31.9739 149.805 30.7654 151.812C29.5569 153.818 25.4482 157.584 23.057 158.469C20.6658 159.354 18.8711 158.912 18.362 158.156C17.8529 157.399 17.2873 156.17 18.0638 154.847C18.65 153.854 20.3675 152.789 21.6171 149.6C22.331 147.825 22.8484 145.977 23.1598 144.089C23.1598 144.089 21.2006 140.884 22.0028 139.917C22.805 138.949 25.3351 137.905 26.5487 138.78C27.4332 139.423 29.017 139.202 30.7808 138.034C32.5447 136.866 32.2464 136.902 32.5344 135.739C32.8224 134.576 32.0099 133.954 32.6989 133.588Z" fill="#002733"/>
<path d="M26.4091 144.275C25.8521 144.197 25.2897 144.166 24.7275 144.182C24.1758 144.287 23.6339 144.438 23.1077 144.635C23.046 144.583 23.6733 143.976 24.6967 143.873C24.9942 143.815 25.3008 143.82 25.5961 143.889C25.8914 143.958 26.1685 144.09 26.4091 144.275Z" fill="white"/>
<path d="M25.1342 147.151C25.0931 147.233 24.584 147.038 23.9412 146.925C23.2984 146.811 22.7585 146.806 22.7482 146.719C22.7379 146.631 23.2984 146.492 23.9978 146.621C24.6971 146.75 25.1651 147.094 25.1342 147.151Z" fill="white"/>
<path opacity="0.3" d="M35.6083 146.569L37.7064 141.635L37.9378 136.49C37.5933 135.801 36.5597 135.163 35.5055 134.659L35.1404 134.684C35.5029 137.063 35.193 139.496 34.2456 141.707C32.6669 145.19 30.1317 149.986 28.8307 151.483C26.9262 153.663 24.5903 155.423 21.9708 156.653C20.2018 157.425 18.6128 157.25 17.9648 157.405C18.0756 157.656 18.2081 157.897 18.3608 158.125C18.875 158.881 20.6594 159.298 23.0558 158.439C25.4521 157.58 29.5557 153.808 30.7693 151.807C31.9829 149.805 31.4533 149.26 32.3635 148.427C32.9651 147.876 34.3639 147.243 35.6083 146.569Z" fill="white"/>
<path d="M37.9383 136.506C37.7215 136.134 37.4224 135.817 37.0641 135.58C37.0949 136.434 36.1796 139.876 35.5831 141.419C34.6926 143.793 33.6518 146.108 32.4668 148.349C33.4593 147.526 36.0665 146.538 37.2698 145.53C38.4731 144.522 41.6202 139.973 41.4968 139.14C41.3734 138.306 38.7456 138.101 37.9383 136.506Z" fill="#455A64"/>
<path d="M24.0655 149.898C24.0295 149.975 23.5204 149.795 22.8879 149.605C22.2553 149.415 21.736 149.276 21.7462 149.188C22.1587 149.099 22.5887 149.142 22.9753 149.312C23.6232 149.512 24.1066 149.826 24.0655 149.898Z" fill="white"/>
<path d="M27.1657 143.421C27.0783 143.379 27.5205 142.5 27.5617 141.327C27.6028 140.154 27.248 139.238 27.3354 139.202C27.4228 139.166 27.9268 140.076 27.8496 141.337C27.8745 142.09 27.6323 142.829 27.1657 143.421Z" fill="#455A64"/>
<path opacity="0.3" d="M9.3318 108.615C13.3891 108.07 23.463 107.879 26.8519 107.998C26.7637 107.672 26.6555 107.353 26.5279 107.041C26.029 105.923 25.4587 104.839 24.8206 103.794C24.2292 103.691 23.499 103.583 22.5734 103.48C19.164 103.094 10.6225 103.948 7.94336 104.231C8.31875 105.523 8.79699 107.056 9.3318 108.615Z" fill="white"/>
<path d="M48.8708 121.801C48.8708 122.316 45.8985 141.836 47.6675 145.628C49.4365 149.419 53.6481 154.487 53.6481 154.487L64.1899 148.581C64.1899 148.581 61.377 145.494 61.521 142.736C61.665 139.978 64.1899 131.15 64.1899 131.15L48.8708 121.801Z" fill="#FFBF9D"/>
<path d="M51.3438 151.704C51.5854 152.337 64.3077 172.572 66.1538 177.357C67.2517 180.152 67.9829 183.078 68.329 186.062L74.6593 188.156L78.7731 186.062C78.7731 186.062 74.0216 171.594 73.0805 164.196C72.577 159.472 70.8271 154.967 68.0102 151.143C66.704 149.183 61.9216 142.762 61.4845 142.875C61.0474 142.988 51.3438 151.704 51.3438 151.704Z" fill="#00A77F"/>
<path d="M78.3628 184.05C78.3628 184.05 81.0214 187.842 80.6614 189.591C80.3015 191.341 82.2402 193.131 81.8185 193.862C81.3968 194.592 76.1619 196.223 74.5369 196.249C72.9119 196.275 70.1196 195.385 68.8803 195.472C67.641 195.56 67.7284 196.311 65.5326 197.134C63.3368 197.957 57.783 198.358 55.3764 197.546C52.9698 196.733 51.8179 195.292 51.8899 194.387C51.9619 193.481 52.2756 192.159 53.7051 191.608C54.785 191.186 56.7906 191.433 59.7526 189.699C61.4125 188.753 62.9643 187.628 64.3807 186.345C64.3807 186.345 64.8332 182.615 66.0623 182.352C67.2913 182.09 69.9242 182.841 70.3304 184.287C70.6287 185.316 72.0068 186.149 74.1152 186.345C76.2236 186.54 75.9665 186.371 76.9127 185.64C77.8589 184.909 77.6172 183.906 78.3628 184.05Z" fill="#002733"/>
<path d="M66.8189 188.516C66.4296 188.112 66.0102 187.739 65.5642 187.4C65.0674 187.144 64.5517 186.927 64.0215 186.751C64.0215 186.669 64.8751 186.592 65.739 187.142C66.603 187.693 66.8806 188.501 66.8189 188.516Z" fill="white"/>
<path d="M64.0103 189.993C63.928 190.029 63.6503 189.56 63.2132 189.072C62.7761 188.583 62.3596 188.243 62.4059 188.166C62.4522 188.089 62.9818 188.336 63.4343 188.871C63.8869 189.406 64.0823 189.962 64.0103 189.993Z" fill="white"/>
<path opacity="0.3" d="M72.5878 196.028L77.2931 193.455L80.6613 189.581C80.8156 188.825 80.4042 187.683 79.89 186.633L79.5917 186.427C78.4027 188.525 76.6497 190.247 74.5316 191.397C71.1325 193.147 66.1547 195.318 64.2469 195.688C61.4026 196.214 58.4801 196.144 55.6643 195.482C53.7976 194.968 52.6611 193.867 52.0646 193.579C51.9979 193.847 51.9532 194.121 51.9309 194.397C51.8589 195.302 53.0057 196.743 55.4174 197.556C57.8292 198.369 63.383 197.967 65.5736 197.144C67.7643 196.321 67.6923 195.57 68.9213 195.482C69.7029 195.416 71.1942 195.786 72.5878 196.028Z" fill="white"/>
<path d="M80.6606 189.591C80.718 189.163 80.6794 188.727 80.5475 188.315C80.0333 189.01 77.1895 191.14 75.7651 191.984C73.5937 193.289 71.342 194.456 69.0234 195.477C70.309 195.451 72.9471 196.28 74.5361 196.249C76.1251 196.218 81.396 194.597 81.8177 193.862C82.2393 193.126 80.3007 191.341 80.6606 189.591Z" fill="#455A64"/>
<path d="M61.475 191.475C61.3978 191.511 61.1099 191.053 60.7293 190.513C60.3488 189.972 60.03 189.535 60.0917 189.484C60.1534 189.432 60.6059 189.777 60.9864 190.343C61.367 190.909 61.5521 191.439 61.475 191.475Z" fill="white"/>
<path d="M67.9238 188.311C68.4944 187.887 69.0324 187.421 69.5334 186.916C70.3099 186.031 70.5876 185.085 70.675 185.115C70.6192 185.87 70.2964 186.579 69.7648 187.117C68.9472 188.084 67.9393 188.393 67.9238 188.311Z" fill="#455A64"/>
<path opacity="0.3" d="M63.4035 144.938C61.2488 146.297 54.1884 151.987 52.6816 153.958C53.2987 154.987 54.0907 156.273 54.9854 157.739C57.2378 156.196 63.6298 150.67 65.9541 148.267C65.121 147.151 64.1954 145.931 63.4035 144.938Z" fill="white"/>
<path d="M45.179 87.5049C44.5362 87.5049 38.6842 83.8263 26.1985 83.8571C19.2152 83.8571 20.835 84.1813 21.5704 84.5002C22.3057 84.8192 32.8322 95.3047 32.1894 100.089C31.5466 104.874 24.3627 106.387 27.1499 107.781C29.937 109.175 43.77 110.143 43.77 110.467C43.77 110.791 42.2684 120.443 43.77 121.621C45.2716 122.799 47.6731 121.729 49.5809 125.593C51.4887 129.457 59.9633 137.288 63.0693 136.644C63.0693 136.644 70.2686 111.393 72.6136 109.212C74.9585 107.03 74.3311 97.589 74.4391 96.9459C74.5471 96.3028 45.179 87.5049 45.179 87.5049Z" fill="#007499"/>
<path d="M45.6211 120.474C45.6642 120.217 45.7296 119.963 45.8165 119.718L46.4387 117.66C46.7113 116.805 47.0147 115.782 47.4158 114.655C47.6213 114.063 47.8705 113.487 48.1614 112.931C48.2401 112.766 48.3563 112.622 48.5008 112.509C48.6589 112.394 48.8505 112.335 49.0459 112.34C49.2439 112.34 49.4369 112.402 49.5988 112.516C49.7606 112.63 49.8836 112.791 49.951 112.978C49.9991 113.157 50.0131 113.344 49.9921 113.528V114.043C49.9921 114.377 49.9561 114.711 49.9355 115.03C49.8893 115.679 49.8276 116.301 49.7556 116.893C49.6064 118.076 49.4162 119.131 49.2413 120.011C49.0665 120.891 48.8608 121.59 48.7271 122.069C48.6662 122.322 48.58 122.568 48.47 122.804C48.4989 122.547 48.5505 122.292 48.6242 122.043C48.7425 121.529 48.9019 120.844 49.0716 119.985C49.2413 119.126 49.411 118.056 49.5447 116.898C49.6116 116.312 49.6681 115.694 49.7093 115.051C49.7093 114.727 49.7453 114.403 49.7607 114.068V113.554C49.7779 113.401 49.7675 113.245 49.7298 113.096C49.6812 112.962 49.5924 112.846 49.4756 112.764C49.3587 112.682 49.2195 112.638 49.0768 112.638C48.9352 112.637 48.7969 112.68 48.6808 112.761C48.5648 112.842 48.4767 112.958 48.4288 113.091C48.1398 113.633 47.8906 114.195 47.6832 114.773C47.2769 115.879 46.953 116.903 46.6547 117.747C46.3565 118.591 46.1405 119.234 45.9502 119.759C45.8606 120.006 45.7505 120.245 45.6211 120.474Z" fill="#455A64"/>
<path d="M45.0754 98.0371C45.1474 98.0371 44.8645 101.474 44.4377 105.698C44.0109 109.922 43.6047 113.349 43.5327 113.338C43.4607 113.328 43.7435 109.901 44.1703 105.672C44.5971 101.443 44.9982 98.0268 45.0754 98.0371Z" fill="#455A64"/>
<path d="M41.7134 93.1538C41.7901 93.3478 41.8452 93.5497 41.878 93.7558C41.9705 94.1519 42.0888 94.723 42.2225 95.433C42.4899 96.8479 42.8139 98.8184 43.0916 101C43.3692 103.181 43.5389 105.172 43.6058 106.613C43.6521 107.333 43.6829 107.915 43.6881 108.316C43.7159 108.524 43.7159 108.735 43.6881 108.944C43.638 108.741 43.607 108.535 43.5955 108.326C43.5475 107.87 43.4909 107.304 43.4258 106.628C43.287 105.193 43.0864 103.212 42.8087 101.036C42.531 98.8596 42.2431 96.889 42.0219 95.4639C41.9191 94.795 41.8317 94.2291 41.7597 93.7763C41.72 93.5714 41.7044 93.3624 41.7134 93.1538Z" fill="#455A64"/>
<path d="M56.9757 38.9261C56.521 39.0649 56.0988 39.2934 55.734 39.5983C55.3692 39.9032 55.0692 40.2782 54.8519 40.7012C53.52 43.3045 50.738 48.9897 50.4089 51.2895C50.0078 54.3199 45.5699 82.7818 45.5699 82.7818C45.5699 82.7818 41.4252 85.4109 43.7032 87.294C45.9813 89.177 72.7062 104.494 75.3339 100.733C77.9617 96.9716 77.72 61.6309 78.3165 51.8554C78.913 42.08 82.0962 42.2601 76.5167 38.4477C71.8166 35.2321 70.2584 34.8462 70.2584 34.8462L56.9757 38.9261Z" fill="#00A77F"/>
<path opacity="0.3" d="M72.8662 65.2532C72.8662 65.2532 75.1545 74.7353 75.1545 75.5945C75.1545 76.4538 66.4948 99.5701 66.7313 99.4415C66.9679 99.3128 76.3064 96.1744 76.6767 94.3994C77.0469 92.6244 77.6126 71.9673 77.7308 70.3673C77.8491 68.7672 76.4504 63.0923 76.4504 63.0923L72.8662 65.2532Z" fill="#002733"/>
<path d="M49.2047 83.4766C49.3014 83.4837 49.3966 83.5045 49.4875 83.5383L50.2846 83.7647L53.226 84.6548L63.0993 87.7417L63.3513 87.8189L63.1353 87.9733C62.5855 88.3642 61.9874 88.6824 61.3561 88.9199C59.2865 89.6336 57.0452 89.6786 54.9487 89.0486C53.2583 88.5425 51.6545 87.7827 50.192 86.7951C48.9373 85.9719 47.9808 85.2207 47.3277 84.7062L46.5769 84.094C46.4862 84.0282 46.4034 83.9523 46.3301 83.8676C46.4299 83.9204 46.5246 83.9824 46.6129 84.0528L47.3894 84.6239C48.0631 85.1127 49.035 85.8381 50.2948 86.6356C51.7527 87.5897 53.3434 88.323 55.0155 88.8119C57.0611 89.4124 59.2426 89.362 61.2584 88.6678C61.8706 88.4424 62.4499 88.1361 62.9811 87.7572L63.0171 87.9938L53.1746 84.8245L50.2537 83.8676L49.4721 83.5949C49.3786 83.5662 49.2888 83.5265 49.2047 83.4766Z" fill="#002733"/>
<path d="M54.3633 54.6235L53.2731 63.123L51.1339 62.8503L51.9464 56.5117L50.8613 56.3728L51.139 54.2119L54.3633 54.6235Z" fill="white"/>
<path d="M60.3945 62.5575L59.5512 62.4494L59.3661 63.9055L57.3091 63.6431L57.4942 62.1819L54.2031 61.76L54.4397 59.9387L57.8028 55.0664L59.9934 55.3442L56.9851 59.8615L57.8439 59.9696L58.0136 58.673L60.0243 58.9303L59.8546 60.2268L60.6979 60.3349L60.3945 62.5575Z" fill="white"/>
<path d="M73.7449 61.5331C73.7449 61.5331 79.4684 74.5396 78.6765 75.3679C77.8845 76.1963 65.5994 90.6176 65.3989 90.6073C65.1983 90.597 68.726 96.6424 68.726 96.6424C68.726 96.6424 87.943 83.2346 88.4727 79.3295C89.0023 75.4245 85.7112 57.7207 85.2741 57.7207C84.837 57.7207 73.7449 61.5331 73.7449 61.5331Z" fill="#FFBF9D"/>
<path d="M53.0523 92.0431C53.0934 91.8733 56.3383 90.5871 58.822 90.5665C61.3058 90.5459 62.0874 91.5595 63.769 90.87C64.5433 90.5224 65.3492 90.2502 66.1756 90.0571L69.9038 95.4388C69.9038 95.4388 61.5989 106.032 60.699 106.485C59.7991 106.938 56.2457 106.835 55.608 106.176C54.9704 105.518 54.7081 105.219 54.7081 105.219C54.7081 105.219 53.1089 105.513 53.1037 104.705C53.0986 103.897 53.9059 103.511 54.8007 103.676C55.6311 103.819 56.4852 103.649 57.197 103.197C57.6701 102.832 59.0637 101.283 58.8992 101.217C58.7346 101.15 51.6998 104.725 50.9285 104.226C50.1571 103.727 50.8205 102.359 51.6279 102.071C52.4352 101.783 58.4826 98.819 57.8244 98.4691C57.1662 98.1193 50.7279 101.932 50.0851 101.443C49.4423 100.954 49.2572 100.146 50.2086 99.385C51.1599 98.6235 56.3794 96.0407 57.4079 95.269C58.4363 94.4972 59.506 94.1577 58.8529 93.7255C58.1998 93.2933 56.0811 93.8387 54.8007 93.5917C53.5202 93.3448 52.934 92.5627 53.0523 92.0431Z" fill="#FFBF9D"/>
<path d="M73.2094 40.4954C72.4998 41.0099 66.838 46.9472 67.9796 52.123C69.1212 57.2988 72.8649 65.2529 72.8649 65.2529L87.6286 59.7375C87.6286 59.7375 82.368 33.7658 73.2094 40.4954Z" fill="#00A77F"/>
<path d="M61.5669 102.76C61.4878 103.121 61.3097 103.452 61.0527 103.717C60.4521 104.383 59.6745 104.865 58.8106 105.106C57.9585 105.339 57.076 105.441 56.1932 105.41C55.8302 105.426 55.4666 105.392 55.1133 105.307C55.4671 105.237 55.8276 105.208 56.188 105.219C57.0568 105.199 57.92 105.075 58.7592 104.849C59.5792 104.616 60.3284 104.183 60.9396 103.588C61.351 103.12 61.5258 102.739 61.5669 102.76Z" fill="#002733"/>
<path opacity="0.3" d="M86.6788 55.8427C85.0579 56.2039 83.4593 56.6592 81.8912 57.2061C80.1325 52.9976 75.561 40.377 74.985 40.1352C74.2908 39.847 67.8217 36.189 67.8217 36.189L66.0527 37.1768C66.8447 37.7479 72.8561 40.485 72.9127 41.2928C72.9641 42.0028 77.9419 53.5481 79.8549 57.8956C75.741 59.3104 71.4779 60.9517 71.0768 61.1781C72.059 63.5345 72.8664 65.2529 72.8664 65.2529L87.6301 59.7375C87.6301 59.7375 87.3061 58.1425 86.6788 55.8427Z" fill="white"/>
<path d="M75.5594 39.8984C74.6657 40.312 73.806 40.7954 72.9882 41.3442C71.0403 42.7024 69.5443 44.6139 68.6936 46.8316C67.8429 49.0493 67.6766 51.4714 68.2161 53.7847C68.4538 54.7375 68.7668 55.67 69.152 56.5733C69.1077 56.5195 69.0697 56.4608 69.0389 56.3983C68.9772 56.28 68.8692 56.1102 68.7612 55.8838C68.4508 55.2235 68.2062 54.5342 68.031 53.8259C67.43 51.4766 67.5739 48.9985 68.4427 46.7346C69.3115 44.4707 70.8622 42.5331 72.8802 41.1898C73.4805 40.7813 74.1216 40.4365 74.7932 40.1608C75.0297 40.0579 75.22 40.0013 75.3486 39.955C75.4159 39.9265 75.4868 39.9074 75.5594 39.8984Z" fill="#002733"/>
<path d="M53.1643 27.9724C53.19 25.1375 53.7094 19.298 54.2391 14.0193C54.5162 11.2808 55.8132 8.74703 57.8721 6.92155C59.9311 5.09607 62.6012 4.1126 65.3517 4.16667H65.9174C72.0214 4.64515 75.0194 10.0988 74.3715 16.1905L70.6021 34.9902C70.1496 35.0519 58.2604 41.7764 58.0341 41.0972L59.3557 34.8718C59.3557 34.8718 53.118 33.8531 53.1643 27.9724Z" fill="#FFBF9D"/>
<path d="M59.3311 34.9595C62.0587 35.0171 64.7453 34.2884 67.0703 32.8604C67.0703 32.8604 64.8488 37.0278 59.002 36.3847L59.3311 34.9595Z" fill="#FF9A6C"/>
<path d="M55.9223 20.07C55.9153 20.2885 55.9944 20.501 56.1425 20.6617C56.2907 20.8225 56.496 20.9185 56.7142 20.9292C56.8206 20.9405 56.9281 20.9303 57.0305 20.8992C57.1328 20.868 57.2278 20.8166 57.3099 20.748C57.3919 20.6793 57.4593 20.5948 57.5081 20.4996C57.5568 20.4043 57.5859 20.3002 57.5936 20.1935C57.6006 19.9744 57.5217 19.7614 57.3737 19.5998C57.2257 19.4383 57.0204 19.3411 56.8017 19.3291C56.695 19.3185 56.5873 19.3294 56.485 19.3612C56.3826 19.3929 56.2877 19.4448 56.2057 19.5139C56.1237 19.5829 56.0564 19.6677 56.0078 19.7632C55.9591 19.8588 55.93 19.9631 55.9223 20.07Z" fill="#002733"/>
<path d="M55.448 16.9156C55.5508 17.0288 56.1936 16.5709 57.0935 16.5915C57.9934 16.6121 58.6362 17.0751 58.7494 16.9671C58.8625 16.859 58.6979 16.7201 58.4151 16.504C58.0299 16.226 57.5685 16.0733 57.0935 16.0667C56.6236 16.054 56.162 16.1929 55.7771 16.4629C55.5045 16.6687 55.3965 16.8642 55.448 16.9156Z" fill="#002733"/>
<path d="M63.6916 20.3271C63.6871 20.5455 63.7669 20.7571 63.9144 20.9181C64.0619 21.0791 64.2657 21.177 64.4835 21.1915C64.5903 21.2028 64.6982 21.1924 64.8009 21.161C64.9035 21.1295 64.9988 21.0776 65.0809 21.0084C65.163 20.9393 65.2303 20.8542 65.2788 20.7583C65.3272 20.6625 65.3558 20.5578 65.3629 20.4506C65.3699 20.2329 65.2915 20.0212 65.1445 19.8606C64.9974 19.7 64.7934 19.6034 64.5761 19.5914C64.4694 19.5801 64.3616 19.5902 64.259 19.6213C64.1563 19.6524 64.061 19.7038 63.9785 19.7724C63.8961 19.8409 63.8282 19.9254 63.7789 20.0207C63.7296 20.116 63.6999 20.2202 63.6916 20.3271Z" fill="#002733"/>
<path d="M64.3136 17.2609C64.4165 17.3741 65.0593 16.9162 65.9643 16.9368C66.8694 16.9574 67.507 17.4513 67.615 17.3124C67.723 17.1735 67.5636 17.0654 67.2808 16.8493C66.8948 16.5728 66.4338 16.4203 65.9592 16.412C65.4898 16.4032 65.0294 16.5418 64.6427 16.8082C64.3599 17.0191 64.2468 17.2146 64.3136 17.2609Z" fill="#002733"/>
<path d="M60.9045 23.8924C60.4319 23.7341 59.9413 23.6355 59.4441 23.5992C59.2127 23.5683 58.9967 23.522 58.9607 23.3625C58.9455 23.124 59.0049 22.8867 59.1304 22.6834C59.3567 22.1277 59.5932 21.5463 59.8452 20.9392C60.8428 18.4593 61.5679 16.4168 61.4702 16.3756C61.3725 16.3345 60.4777 18.3153 59.4801 20.8003L58.7962 22.5496C58.644 22.8254 58.5947 23.1463 58.6573 23.4551C58.69 23.5362 58.7402 23.6091 58.8041 23.6687C58.8681 23.7282 58.9444 23.773 59.0276 23.7998C59.1551 23.8352 59.2862 23.8559 59.4184 23.8616C59.9105 23.9348 60.4099 23.9452 60.9045 23.8924Z" fill="#002733"/>
<path d="M64.1546 13.7214C64.2369 13.9684 65.1419 13.8706 66.2115 14.0198C67.2812 14.169 68.1194 14.4726 68.2685 14.2565C68.3302 14.1536 68.1862 13.9169 67.8468 13.6751C67.3961 13.3668 66.8773 13.1726 66.335 13.1092C65.7955 13.032 65.2454 13.0849 64.7305 13.2635C64.314 13.4127 64.1186 13.6031 64.1546 13.7214Z" fill="#002733"/>
<path d="M55.8293 14.3076C55.9887 14.5186 56.6109 14.3076 57.372 14.3076C58.133 14.3076 58.7501 14.4723 58.9147 14.2613C58.9815 14.1584 58.8838 13.9526 58.6113 13.7468C58.244 13.5075 57.8141 13.3823 57.3758 13.3868C56.9375 13.3914 56.5103 13.5256 56.1481 13.7726C55.855 13.9989 55.7624 14.2099 55.8293 14.3076Z" fill="#002733"/>
<path d="M54.8627 11.3234C54.8627 11.3234 56.4877 7.67563 58.2772 6.85244C60.4422 5.85432 61.3215 8.23129 63.3785 7.70136C65.4354 7.17143 67.4924 6.21446 69.5493 7.84027C71.8017 9.61529 70.7064 10.8089 70.7938 13.4174C71.1537 24.0006 73.0204 27.0259 73.6735 22.061C73.7404 21.5156 75.2625 21.1143 75.535 18.8145C75.8847 15.8304 76.075 12.2032 75.4476 10.068C74.9334 8.26731 73.9306 7.01193 72.1308 5.6125C69.2922 3.40531 65.3326 3.28183 62.638 3.49792C59.9434 3.71401 54.7084 6.71867 54.8627 11.3234Z" fill="#002733"/>
<path d="M73.3125 21.9017C73.3248 21.6882 73.3797 21.4793 73.4741 21.2874C73.5684 21.0955 73.7003 20.9244 73.8618 20.7844C74.0234 20.6443 74.2114 20.5381 74.4147 20.4719C74.618 20.4058 74.8325 20.3811 75.0455 20.3994C76.1408 20.528 77.3441 21.1763 77.2258 23.4349C77.0201 27.4531 72.4588 26.2492 72.3457 26.2183C71.3121 25.9559 73.2148 23.5841 73.3125 21.9017Z" fill="#FFBF9D"/>
<path d="M74.0176 24.8339C74.0176 24.8339 74.0844 24.8853 74.1976 24.9471C74.3587 25.0222 74.5418 25.035 74.7118 24.9831C75.1438 24.8493 75.5346 24.1959 75.5911 23.4705C75.6222 23.121 75.573 22.769 75.4472 22.4415C75.4144 22.3122 75.3504 22.1929 75.2607 22.0942C75.171 21.9955 75.0585 21.9204 74.9329 21.8755C74.8539 21.85 74.7684 21.853 74.6913 21.884C74.6143 21.915 74.5506 21.9721 74.5112 22.0453C74.4547 22.1533 74.4752 22.2357 74.4495 22.2408C74.4238 22.246 74.3673 22.1688 74.4084 22.0093C74.4366 21.9093 74.4984 21.8221 74.5832 21.7623C74.6984 21.6864 74.8381 21.657 74.9741 21.68C75.1367 21.7224 75.2858 21.8056 75.4072 21.9217C75.5287 22.0379 75.6186 22.1831 75.6683 22.3437C75.8237 22.6996 75.8873 23.0887 75.8534 23.4756C75.7866 24.2834 75.3392 25.0191 74.7427 25.1529C74.6336 25.1795 74.5199 25.1809 74.4103 25.1568C74.3006 25.1327 74.198 25.0839 74.1101 25.0139C74.0176 24.9316 74.0176 24.839 74.0176 24.8339Z" fill="#FF9A6C"/>
<path d="M52.033 10.6907C52.7511 11.0023 53.5581 11.0416 54.3029 10.8011C55.0478 10.5605 55.6796 10.0567 56.0801 9.38385C56.3493 9.58755 56.6609 9.72796 56.9918 9.79465C57.3227 9.86133 57.6644 9.85258 57.9914 9.76905C58.3185 9.68551 58.6225 9.52934 58.881 9.31213C59.1394 9.09492 59.3457 8.82224 59.4843 8.51436C60.2248 9.33241 61.8241 9.65654 62.904 9.45074C64.6781 9.10603 68.7303 7.30014 68.7303 7.30014C68.0207 8.46805 68.4783 10.8553 69.4451 12.6097C70.0005 13.6387 71.4558 14.5545 71.7026 14.9661C72.294 15.954 73.3996 16.8286 74.4795 16.4222C75.364 16.0877 75.8062 15.1205 76.1559 14.2458C76.809 12.6252 77.4723 10.8296 76.9118 9.17806C76.5364 8.06674 75.7291 6.5284 74.7829 5.83897C73.2916 4.74824 72.8288 5.00549 72.8288 5.00549C72.8288 5.00549 72.6694 3.16359 71.2861 2.29409C70.7756 1.95709 70.1849 1.76146 69.5743 1.72712C68.9637 1.69278 68.3548 1.82095 67.8098 2.09858C67.8098 2.09858 66.7454 -0.113751 63.7319 0.00458333C62.1731 0.135971 60.6695 0.644484 59.3506 1.48633C59.3506 1.48633 57.9468 0.164077 55.5401 1.64583C54.9551 1.98447 54.5032 2.51279 54.2591 3.14338C54.0151 3.77396 53.9935 4.46901 54.198 5.11353C54.198 5.11353 52.6553 5.08266 51.9302 5.62803C49.9864 7.07891 50.0378 9.78002 52.033 10.6907Z" fill="#002733"/>
<path d="M63.9339 23.8208C63.8053 23.8208 63.9956 24.7057 63.4197 25.4775C62.8437 26.2492 61.877 26.3676 61.877 26.5065C61.877 26.6454 62.1186 26.63 62.5095 26.5528C63.0183 26.4375 63.4701 26.1459 63.7848 25.7296C64.0904 25.3385 64.234 24.8448 64.1859 24.3507C64.1345 23.9957 63.9905 23.8002 63.9339 23.8208Z" fill="#002733"/>
<path d="M205.368 192.01C212.908 192.01 219.021 185.894 219.021 178.35C219.021 170.806 212.908 164.69 205.368 164.69C197.827 164.69 191.715 170.806 191.715 178.35C191.715 185.894 197.827 192.01 205.368 192.01Z" fill="#E0E0E0"/>
<path d="M219.033 178.349C219.017 178.277 219.008 178.203 219.007 178.128C219.007 177.97 218.991 177.754 218.961 177.48C218.961 177.336 218.95 177.176 218.93 177.001C218.93 176.826 218.873 176.636 218.842 176.43C218.778 175.956 218.682 175.487 218.554 175.026C218.232 173.756 217.721 172.542 217.037 171.424C215.421 168.718 212.911 166.661 209.941 165.607C206.971 164.553 203.727 164.569 200.767 165.652C200.161 165.868 199.571 166.127 199.003 166.429C198.426 166.743 197.873 167.099 197.347 167.494C196.802 167.892 196.287 168.328 195.805 168.8C195.326 169.283 194.883 169.799 194.478 170.344C193.637 171.475 192.984 172.735 192.544 174.074C191.619 176.844 191.619 179.84 192.544 182.609C192.984 183.949 193.637 185.208 194.478 186.34C194.883 186.891 195.325 187.415 195.799 187.909C196.284 188.376 196.8 188.811 197.342 189.21C197.869 189.605 198.422 189.963 198.998 190.281C199.567 190.58 200.157 190.839 200.762 191.057C203.038 191.883 205.493 192.088 207.874 191.649C209.947 191.267 211.901 190.402 213.577 189.123C214.963 188.074 216.136 186.77 217.032 185.28C217.715 184.162 218.227 182.948 218.549 181.678C218.679 181.218 218.776 180.748 218.837 180.274C218.868 180.068 218.904 179.877 218.925 179.703C218.945 179.528 218.925 179.368 218.955 179.229C218.976 178.951 218.991 178.735 219.002 178.581C219.002 178.506 219.011 178.432 219.027 178.36C219.027 178.36 219.027 178.432 219.027 178.581C219.027 178.73 219.027 178.957 219.027 179.229C219.027 179.373 219.027 179.533 219.027 179.708C219.027 179.888 218.976 180.078 218.95 180.284C218.899 180.764 218.809 181.238 218.683 181.704C218.38 182.996 217.878 184.234 217.197 185.372C216.205 187.053 214.866 188.504 213.27 189.627C211.674 190.75 209.857 191.52 207.941 191.886C204.861 192.452 201.68 191.97 198.905 190.517C198.317 190.195 197.752 189.832 197.214 189.432C196.67 189.024 196.155 188.581 195.671 188.104C195.183 187.605 194.731 187.072 194.318 186.509C193.459 185.357 192.792 184.073 192.344 182.707C191.391 179.884 191.391 176.825 192.344 174.002C192.794 172.638 193.461 171.356 194.318 170.205C194.733 169.644 195.185 169.111 195.671 168.61C196.156 168.135 196.671 167.691 197.214 167.283C197.743 166.881 198.298 166.515 198.875 166.187C199.457 165.886 200.058 165.623 200.674 165.4C202.989 164.564 205.486 164.363 207.904 164.818C209.82 165.187 211.636 165.958 213.232 167.081C214.827 168.203 216.167 169.652 217.161 171.332C217.842 172.47 218.344 173.708 218.647 175C218.773 175.466 218.862 175.94 218.914 176.42C218.94 176.631 218.976 176.821 218.991 176.996C219.007 177.171 218.991 177.331 218.991 177.475C218.991 177.753 218.991 177.989 218.991 178.128C218.991 178.267 219.033 178.349 219.033 178.349Z" fill="#002733"/>
<path d="M204.962 169.964C204.926 169.933 206.407 166.938 206.407 166.938L211.4 167.551C211.4 167.551 213.395 171.512 213.297 171.543L209.132 173.19L204.962 169.964Z" fill="#002733"/>
<path d="M208.264 178.931C208.264 178.931 204.438 181.087 203.363 181.143C203.363 181.143 203.759 186.412 203.677 186.412C203.595 186.412 208.886 187.281 208.886 187.281C208.886 187.281 211.55 183.85 211.689 182.919L208.264 178.931Z" fill="#002733"/>
<path d="M194.534 179.801C194.534 179.801 192.878 175.962 192.806 175.962C192.734 175.962 195.773 171.054 195.773 171.054L199.136 172.31L198.884 177.969L194.534 179.801Z" fill="#002733"/>
<path d="M194.534 185.002C194.344 183.192 194.328 181.367 194.488 179.554C194.685 181.364 194.701 183.189 194.534 185.002Z" fill="#002733"/>
<path d="M204.325 181.498C203.339 181.001 202.395 180.425 201.502 179.775C200.56 179.199 199.666 178.549 198.828 177.83C199.815 178.33 200.759 178.91 201.651 179.564C202.593 180.136 203.487 180.783 204.325 181.498Z" fill="#002733"/>
<path d="M204.054 186.556C202.585 187.37 201.033 188.025 199.426 188.511C200.137 188.068 200.891 187.699 201.678 187.41C202.438 187.043 203.234 186.757 204.054 186.556Z" fill="#002733"/>
<path d="M210.62 190.852C209.894 189.732 209.255 188.559 208.707 187.343C209.565 188.378 210.215 189.57 210.62 190.852Z" fill="#002733"/>
<path d="M217.121 181.077C216.266 181.565 215.356 181.952 214.411 182.229C213.495 182.592 212.539 182.845 211.562 182.98C212.461 182.587 213.383 182.252 214.324 181.977C215.236 181.616 216.17 181.315 217.121 181.077Z" fill="#002733"/>
<path d="M209.14 172.17C209.11 173.349 209.019 174.526 208.867 175.695C208.807 176.873 208.687 178.048 208.507 179.214C208.423 178.034 208.454 176.848 208.6 175.674C208.662 174.491 208.843 173.317 209.14 172.17Z" fill="#002733"/>
<path d="M217.566 176.055C216.783 175.365 216.044 174.626 215.354 173.843C214.603 173.119 213.899 172.347 213.246 171.533C214.087 172.158 214.859 172.87 215.55 173.658C216.307 174.381 216.983 175.185 217.566 176.055Z" fill="#002733"/>
<path d="M212.146 166.547C212.213 166.573 212.146 166.923 211.92 167.288C211.694 167.653 211.406 167.874 211.359 167.828C211.313 167.782 211.483 167.494 211.688 167.149C211.894 166.804 212.074 166.521 212.146 166.547Z" fill="#002733"/>
<path d="M202.344 164.896C203.755 165.432 205.098 166.133 206.345 166.984C204.933 166.448 203.59 165.747 202.344 164.896Z" fill="#002733"/>
<path d="M205.543 169.789C205.543 169.866 203.944 170.339 202.021 171.106C200.097 171.872 198.591 172.649 198.555 172.557C198.841 172.32 199.158 172.123 199.496 171.97C200.283 171.553 201.094 171.18 201.923 170.854C202.751 170.527 203.596 170.244 204.453 170.005C204.806 169.886 205.172 169.814 205.543 169.789Z" fill="#002733"/>
<path d="M195.892 172.191C195.683 171.724 195.559 171.224 195.526 170.714C195.406 170.218 195.373 169.704 195.429 169.196C195.634 169.664 195.756 170.163 195.789 170.673C195.909 171.169 195.944 171.683 195.892 172.191Z" fill="#002733"/>
<path d="M193.48 175.901C193.48 175.968 193.166 176.148 192.724 176.297C192.281 176.446 191.906 176.513 191.88 176.441C191.855 176.369 192.194 176.194 192.636 176.045C193.078 175.896 193.454 175.829 193.48 175.901Z" fill="#002733"/>
<path d="M218.725 175.52L216.874 175.788L216.051 181.257L217.763 184.076C218.596 182.282 219.03 180.328 219.033 178.35C219.03 177.398 218.927 176.45 218.725 175.52Z" fill="#002733"/>
<path d="M194.534 185.259C194.534 185.259 193.968 185.836 193.922 185.774C195.469 188.148 197.712 189.985 200.345 191.032C200.381 190.929 199.44 188.295 199.44 188.295L194.534 185.259Z" fill="#002733"/>
<path d="M17.3229 59.1098C24.8633 59.1098 30.9759 52.9941 30.9759 45.4499C30.9759 37.9058 24.8633 31.79 17.3229 31.79C9.78257 31.79 3.66992 37.9058 3.66992 45.4499C3.66992 52.9941 9.78257 59.1098 17.3229 59.1098Z" fill="#E0E0E0"/>
<path d="M30.9749 45.45C30.967 45.3765 30.967 45.3023 30.9749 45.2287C30.9749 45.0744 30.9749 44.8583 30.9286 44.5856C30.9286 44.4416 30.9183 44.2821 30.8978 44.1071C30.8978 43.9322 30.8412 43.7419 30.8104 43.5361C30.7489 43.0614 30.6526 42.592 30.5224 42.1315C30.192 40.8602 29.6719 39.6461 28.9797 38.53C28.0837 37.0398 26.9107 35.7352 25.524 34.6867C23.848 33.4078 21.8941 32.5423 19.8211 32.1605C17.4401 31.7219 14.9852 31.9262 12.7092 32.7522C12.1051 32.9726 11.5159 33.2321 10.9454 33.5291C10.37 33.8482 9.81682 34.2057 9.28954 34.5992C8.74704 34.9984 8.23166 35.4333 7.74683 35.9009C7.26915 36.3929 6.82586 36.9172 6.4201 37.4701C5.58732 38.5917 4.93812 39.8386 4.49685 41.1642C3.57126 43.934 3.57126 46.9299 4.49685 49.6997C4.9368 51.0374 5.58971 52.2952 6.43038 53.4247C6.8358 53.9697 7.27915 54.4855 7.75712 54.9682C8.24057 55.4389 8.75604 55.8756 9.29983 56.275C9.8263 56.6697 10.3796 57.0273 10.9557 57.3451C11.5262 57.6421 12.1153 57.9016 12.7195 58.122C14.9955 58.9481 17.4503 59.1523 19.8314 58.7137C21.9037 58.3297 23.8571 57.4644 25.5343 56.1875C26.921 55.139 28.094 53.8344 28.99 52.3442C29.6822 51.2281 30.2023 50.014 30.5327 48.7428C30.6625 48.2821 30.7587 47.8127 30.8206 47.3382C30.8515 47.1324 30.8875 46.942 30.9081 46.7671C30.9286 46.5922 30.9081 46.4327 30.9389 46.2886C30.9595 46.0142 30.9749 45.7981 30.9852 45.6403C30.9778 45.5668 30.9778 45.4927 30.9852 45.4191C30.992 45.4927 30.992 45.5668 30.9852 45.6403C30.9852 45.7998 30.9852 46.0159 30.9852 46.2938C30.9852 46.4378 30.9852 46.5973 30.9852 46.7722C30.9852 46.9472 30.9338 47.1375 30.9081 47.3485C30.8556 47.8276 30.7679 48.3022 30.6458 48.7685C30.3385 50.0602 29.8356 51.2972 29.1545 52.4368C28.1601 54.1159 26.8208 55.5648 25.2251 56.6876C23.6295 57.8104 21.8139 58.5817 19.8983 58.9504C17.4778 59.4052 14.9798 59.2044 12.6629 58.369C12.0472 58.1442 11.4461 57.8813 10.8631 57.5818C10.2758 57.2577 9.71066 56.895 9.17127 56.4962C8.62906 56.0874 8.11376 55.644 7.62856 55.1688C7.14255 54.6681 6.69072 54.1352 6.27611 53.5739C5.41873 52.4204 4.75202 51.1367 4.30144 49.7718C3.84436 48.3656 3.60504 46.8977 3.5918 45.4191C3.60759 43.9407 3.84685 42.4732 4.30144 41.0665C4.75096 39.7027 5.41777 38.4205 6.27611 37.2695C6.69072 36.7081 7.14255 36.1753 7.62856 35.6745C8.11246 35.198 8.62786 34.7545 9.17127 34.3471C9.70942 33.9465 10.2747 33.5838 10.8631 33.2616C11.4461 32.962 12.0472 32.6991 12.6629 32.4744C14.9696 31.6486 17.4543 31.4515 19.8623 31.9033C21.7789 32.2692 23.5957 33.0393 25.1917 34.1624C26.7877 35.2855 28.1264 36.7358 29.1185 38.4168C29.7996 39.5564 30.3025 40.7935 30.6098 42.0852C30.7324 42.5513 30.82 43.026 30.8721 43.5052C30.8721 43.711 30.9338 43.9013 30.9492 44.0814C30.9646 44.2615 30.9492 44.4158 30.9492 44.5599C30.9492 44.8377 30.9492 45.0744 30.9492 45.2082C30.966 45.2877 30.9747 45.3687 30.9749 45.45Z" fill="#002733"/>
<path d="M16.936 37.0487C16.9052 37.0178 18.3862 34.0234 18.3862 34.0234L23.3743 34.6357C23.3743 34.6357 25.3695 38.5973 25.2769 38.6282C25.1844 38.659 21.1065 40.2694 21.1065 40.2694L16.936 37.0487Z" fill="#002733"/>
<path d="M20.2171 46.0366C20.2171 46.0366 16.3912 48.1872 15.3164 48.2438C15.3164 48.2438 15.7124 53.5174 15.6301 53.5174C15.5478 53.5174 20.8393 54.3972 20.8393 54.3972C20.8393 54.3972 23.5031 50.9655 23.6419 50.0291L20.2171 46.0366Z" fill="#002733"/>
<path d="M6.48678 46.9059C6.48678 46.9059 4.83608 43.0626 4.77437 43.0626C4.71266 43.0626 7.74152 38.1543 7.74152 38.1543L11.1098 39.4097L10.8526 45.0691L6.48678 46.9059Z" fill="#002733"/>
<path d="M6.48822 52.1077C6.34881 51.2076 6.29714 50.2961 6.33395 49.386C6.28133 48.4757 6.3175 47.5625 6.44194 46.6592C6.58573 47.564 6.63913 48.4809 6.60135 49.3963C6.65291 50.3016 6.61502 51.2098 6.48822 52.1077Z" fill="#002733"/>
<path d="M16.2782 48.6039C15.2934 48.1045 14.3494 47.5282 13.4551 46.8803C12.5072 46.3064 11.6077 45.656 10.7656 44.9355C11.749 45.4327 12.6913 46.0073 13.5836 46.654C14.5335 47.2294 15.4347 47.8815 16.2782 48.6039Z" fill="#002733"/>
<path d="M16.0053 53.6611C15.2959 54.1074 14.5408 54.4766 13.7529 54.7622C12.9989 55.1305 12.2076 55.4168 11.3926 55.6162C12.1045 55.1814 12.8593 54.8211 13.6449 54.5409C14.398 54.1639 15.1893 53.869 16.0053 53.6611Z" fill="#002733"/>
<path d="M22.5932 57.9576C22.1917 57.422 21.847 56.8461 21.5647 56.2392C21.2055 55.6749 20.9056 55.0748 20.6699 54.4487C21.133 54.9378 21.5134 55.4991 21.7961 56.1106C22.1623 56.6778 22.4316 57.302 22.5932 57.9576Z" fill="#002733"/>
<path d="M29.0726 48.1821C28.2158 48.6679 27.3066 49.0545 26.3625 49.3346C25.4444 49.6921 24.4887 49.9441 23.5137 50.0858C24.412 49.686 25.3343 49.3423 26.2751 49.0568C27.188 48.7058 28.1224 48.4137 29.0726 48.1821Z" fill="#002733"/>
<path d="M21.0915 39.2764C21.0622 40.4551 20.9713 41.6315 20.819 42.8007C20.6441 44.766 20.5361 46.3095 20.4641 46.3095C20.3677 45.132 20.3918 43.9476 20.5361 42.7749C20.6017 41.5929 20.7878 40.4206 21.0915 39.2764Z" fill="#002733"/>
<path d="M29.5259 43.1555C28.7369 42.472 27.9963 41.7345 27.3095 40.9483C26.5597 40.2226 25.8556 39.4511 25.2012 38.6382C26.0431 39.2617 26.8154 39.9741 27.505 40.7631C28.2586 41.4893 28.9358 42.2909 29.5259 43.1555Z" fill="#002733"/>
<path d="M24.1006 33.6526C24.1675 33.6526 24.1006 34.0282 23.8744 34.3935C23.6481 34.7588 23.3601 34.98 23.319 34.908C23.2779 34.836 23.4373 34.5787 23.6481 34.234C23.8589 33.8893 24.0338 33.6269 24.1006 33.6526Z" fill="#002733"/>
<path d="M14.2988 32.001C15.0186 32.2275 15.709 32.5384 16.3558 32.9271C17.0466 33.238 17.6989 33.6282 18.2996 34.0898C17.5798 33.8635 16.8893 33.5527 16.2426 33.1637C15.5504 32.8555 14.8978 32.4652 14.2988 32.001Z" fill="#002733"/>
<path d="M17.4963 36.8994C17.4963 36.9766 15.9022 37.4499 13.9738 38.2114C12.0454 38.9728 10.5438 39.7549 10.5078 39.6674C10.7957 39.4401 11.112 39.2516 11.4489 39.1066C12.2365 38.6895 13.0468 38.3167 13.8761 37.9901C14.7078 37.6518 15.5575 37.3598 16.4215 37.1155C16.7683 36.9949 17.1299 36.9222 17.4963 36.8994Z" fill="#002733"/>
<path d="M7.82912 39.297C7.62323 38.8295 7.4997 38.3299 7.46401 37.8203C7.34037 37.3157 7.30729 36.7931 7.3663 36.2769C7.57219 36.7443 7.69571 37.2439 7.73141 37.7535C7.85191 38.2586 7.88496 38.7806 7.82912 39.297Z" fill="#002733"/>
<path d="M5.43268 43.0061C5.43268 43.073 5.11899 43.2531 4.67675 43.4023C4.23451 43.5515 3.85911 43.6184 3.8334 43.5464C3.80769 43.4743 4.14709 43.2994 4.58933 43.1502C5.03157 43.001 5.40697 42.9341 5.43268 43.0061Z" fill="#002733"/>
<path d="M30.6818 42.6255L28.8255 42.8879L28.0078 48.3673L29.7151 51.1919C30.5485 49.3927 30.9785 47.433 30.975 45.4501C30.9745 44.501 30.8763 43.5544 30.6818 42.6255Z" fill="#002733"/>
<path d="M6.48694 52.3647C6.48694 52.3647 5.92128 52.9358 5.875 52.8792C7.42218 55.2585 9.67025 57.0977 12.3081 58.1425C12.339 58.0448 11.3979 55.4106 11.3979 55.4106L6.48694 52.3647Z" fill="#002733"/>
</svg>
