<svg width="192" height="309" viewBox="0 0 192 309" fill="none" xmlns="http://www.w3.org/2000/svg">
<path d="M191.585 39.8184V247.896C191.585 251.807 188.407 254.945 184.52 255.37C157.292 258.346 130.319 277.62 113.432 292.18C111.262 294.032 108.436 296.671 105.692 299.304C100.288 304.489 91.708 304.489 86.3043 299.304C83.5607 296.671 80.734 294.032 78.5645 292.18C61.6839 277.62 34.7117 258.346 7.48306 255.37C3.59589 254.945 0.417969 251.807 0.417969 247.896V39.8111C0.419618 39.1909 0.550045 38.5782 0.800558 38.0139C1.05107 37.4495 1.41591 36.9464 1.87077 36.5381H1.9062C2.68123 35.8425 3.67588 35.459 4.70551 35.459C5.73513 35.459 6.72978 35.8425 7.50481 36.5381C10.6374 39.273 14.5099 40.9596 18.6029 41.3719C22.6959 41.7842 26.8139 40.9025 30.4049 38.8449C33.9959 36.7873 36.8881 33.6523 38.6939 29.86C40.4997 26.0677 41.1328 21.7995 40.5082 17.6276C40.2472 16.0311 40.5267 14.3911 41.3004 12.9804C42.074 11.5697 43.2951 10.4735 44.7603 9.87427C77.7434 -3.09155 114.232 -3.09155 147.215 9.87427C148.68 10.4735 149.901 11.5697 150.675 12.9804C151.448 14.3911 151.728 16.0311 151.467 17.6276C150.824 21.8099 151.447 26.0939 153.252 29.9011C155.057 33.7083 157.957 36.8554 161.56 38.9173C165.163 40.9793 169.296 41.8568 173.401 41.4313C177.506 41.0058 181.384 39.2979 184.513 36.5381C185.287 35.8464 186.279 35.4654 187.305 35.4654C188.331 35.4654 189.323 35.8464 190.097 36.5381L190.133 36.5745C190.584 36.9795 190.947 37.4779 191.197 38.037C191.447 38.5961 191.58 39.2031 191.585 39.8184Z" fill="url(#paint0_linear_156_3417)"/>
<path d="M46.4414 197.689H145.565" stroke="white" stroke-width="0.708028" stroke-linecap="round"/>
<path d="M81.6016 259.996H110.402" stroke="white" stroke-width="0.708028" stroke-linecap="round"/>
<path d="M65.9176 176.705L62.0868 163.316H65.1789L67.395 172.619H67.5062L69.9511 163.316H72.5986L75.037 172.638H75.1547L77.3708 163.316H80.4629L76.6321 176.705H73.8734L71.3239 167.951H71.2193L68.6763 176.705H65.9176ZM82.9372 176.705H79.9039L84.5257 163.316H88.1735L92.7887 176.705H89.7555L86.4019 166.376H86.2973L82.9372 176.705ZM82.7476 171.442H89.9124V173.652H82.7476V171.442ZM98.8242 172.05H101.23L102.439 173.606L103.629 174.992L105.871 177.803H103.23L101.687 175.907L100.896 174.783L98.8242 172.05ZM106.074 170.011C106.074 171.47 105.797 172.713 105.244 173.737C104.695 174.761 103.945 175.543 102.995 176.084C102.049 176.62 100.986 176.888 99.8048 176.888C98.615 176.888 97.5473 176.617 96.6016 176.077C95.6558 175.537 94.9084 174.754 94.3593 173.73C93.8102 172.706 93.5356 171.466 93.5356 170.011C93.5356 168.551 93.8102 167.308 94.3593 166.284C94.9084 165.26 95.6558 164.48 96.6016 163.944C97.5473 163.404 98.615 163.133 99.8048 163.133C100.986 163.133 102.049 163.404 102.995 163.944C103.945 164.48 104.695 165.26 105.244 166.284C105.797 167.308 106.074 168.551 106.074 170.011ZM103.204 170.011C103.204 169.065 103.062 168.267 102.779 167.618C102.5 166.969 102.106 166.476 101.596 166.14C101.086 165.805 100.489 165.637 99.8048 165.637C99.1205 165.637 98.5235 165.805 98.0136 166.14C97.5037 166.476 97.1071 166.969 96.8238 167.618C96.5449 168.267 96.4054 169.065 96.4054 170.011C96.4054 170.956 96.5449 171.754 96.8238 172.403C97.1071 173.052 97.5037 173.545 98.0136 173.881C98.5235 174.216 99.1205 174.384 99.8048 174.384C100.489 174.384 101.086 174.216 101.596 173.881C102.106 173.545 102.5 173.052 102.779 172.403C103.062 171.754 103.204 170.956 103.204 170.011ZM109.723 176.705H106.69L111.312 163.316H114.96L119.575 176.705H116.542L113.188 166.376H113.083L109.723 176.705ZM109.534 171.442H116.698V173.652H109.534V171.442ZM121.186 176.705V163.316H126.468C127.479 163.316 128.342 163.497 129.057 163.859C129.776 164.216 130.323 164.724 130.698 165.382C131.077 166.036 131.267 166.805 131.267 167.69C131.267 168.579 131.075 169.344 130.691 169.984C130.308 170.621 129.752 171.109 129.024 171.449C128.301 171.789 127.425 171.959 126.396 171.959H122.86V169.684H125.939C126.479 169.684 126.928 169.61 127.285 169.461C127.643 169.313 127.909 169.091 128.083 168.795C128.262 168.498 128.351 168.13 128.351 167.69C128.351 167.245 128.262 166.87 128.083 166.565C127.909 166.26 127.641 166.029 127.279 165.872C126.922 165.711 126.47 165.631 125.926 165.631H124.017V176.705H121.186ZM128.416 170.612L131.744 176.705H128.619L125.364 170.612H128.416Z" fill="white"/>
<path d="M79.4626 191.013V182.774H81.2045V189.577H84.7366V191.013H79.4626ZM85.8902 191.013V182.774H91.4418V184.21H87.6321V186.174H91.1561V187.61H87.6321V189.577H91.4578V191.013H85.8902ZM94.3151 182.774L96.3064 189.034H96.3829L98.3782 182.774H100.309L97.469 191.013H95.2243L92.3801 182.774H94.3151ZM101.301 191.013V182.774H106.852V184.21H103.043V186.174H106.567V187.61H103.043V189.577H106.869V191.013H101.301ZM108.237 191.013V182.774H109.979V189.577H113.511V191.013H108.237Z" fill="white"/>
<path d="M76.2459 21.1135V31.4121H74.3652L69.8848 24.9302H69.8093V31.4121H67.6319V21.1135H69.5428L73.9881 27.5904H74.0786V21.1135H76.2459ZM87.5088 26.2628C87.5088 27.3859 87.2959 28.3413 86.8701 29.1291C86.4477 29.9169 85.8711 30.5187 85.1403 30.9344C84.4128 31.3467 83.5948 31.5529 82.6863 31.5529C81.7711 31.5529 80.9498 31.3451 80.2223 30.9294C79.4948 30.5137 78.9199 29.9119 78.4975 29.1241C78.0751 28.3363 77.8639 27.3825 77.8639 26.2628C77.8639 25.1398 78.0751 24.1843 78.4975 23.3965C78.9199 22.6087 79.4948 22.0086 80.2223 21.5963C80.9498 21.1806 81.7711 20.9727 82.6863 20.9727C83.5948 20.9727 84.4128 21.1806 85.1403 21.5963C85.8711 22.0086 86.4477 22.6087 86.8701 23.3965C87.2959 24.1843 87.5088 25.1398 87.5088 26.2628ZM85.3012 26.2628C85.3012 25.5353 85.1923 24.9219 84.9743 24.4223C84.7598 23.9228 84.4564 23.544 84.0642 23.2859C83.6719 23.0277 83.2127 22.8987 82.6863 22.8987C82.16 22.8987 81.7007 23.0277 81.3085 23.2859C80.9163 23.544 80.6112 23.9228 80.3933 24.4223C80.1787 24.9219 80.0715 25.5353 80.0715 26.2628C80.0715 26.9903 80.1787 27.6038 80.3933 28.1033C80.6112 28.6028 80.9163 28.9816 81.3085 29.2398C81.7007 29.4979 82.16 29.627 82.6863 29.627C83.2127 29.627 83.6719 29.4979 84.0642 29.2398C84.4564 28.9816 84.7598 28.6028 84.9743 28.1033C85.1923 27.6038 85.3012 26.9903 85.3012 26.2628ZM89.6836 31.5429C89.3517 31.5429 89.0668 31.4255 88.8288 31.1909C88.5941 30.9528 88.4768 30.6679 88.4768 30.336C88.4768 30.0075 88.5941 29.7259 88.8288 29.4912C89.0668 29.2565 89.3517 29.1392 89.6836 29.1392C90.0055 29.1392 90.2871 29.2565 90.5284 29.4912C90.7698 29.7259 90.8905 30.0075 90.8905 30.336C90.8905 30.5572 90.8335 30.7601 90.7195 30.9444C90.6089 31.1255 90.4631 31.2713 90.282 31.3819C90.101 31.4892 89.9015 31.5429 89.6836 31.5429Z" fill="white"/>
<path d="M101.174 34.9421C99.7903 34.9368 98.5995 34.5962 97.6019 33.9203C96.6095 33.2445 95.8452 32.2656 95.3088 30.9836C94.7778 29.7017 94.515 28.1596 94.5203 26.3573C94.5203 24.5604 94.7858 23.029 95.3169 21.7632C95.8532 20.4973 96.6176 19.5345 97.6099 18.8747C98.6076 18.2096 99.7957 17.8771 101.174 17.8771C102.553 17.8771 103.738 18.2096 104.73 18.8747C105.728 19.5399 106.495 20.5053 107.031 21.7712C107.568 23.0317 107.833 24.5604 107.828 26.3573C107.828 28.1649 107.56 29.7097 107.023 30.9917C106.492 32.2736 105.731 33.2525 104.738 33.9284C103.746 34.6042 102.558 34.9421 101.174 34.9421ZM101.174 32.0537C102.118 32.0537 102.872 31.579 103.435 30.6296C103.998 29.6802 104.277 28.2561 104.272 26.3573C104.272 25.1075 104.143 24.0669 103.886 23.2355C103.634 22.4041 103.274 21.7793 102.807 21.3609C102.346 20.9425 101.802 20.7333 101.174 20.7333C100.236 20.7333 99.4846 21.2026 98.9214 22.1413C98.3582 23.08 98.0739 24.4853 98.0685 26.3573C98.0685 27.6232 98.1946 28.6798 98.4467 29.5273C98.7041 30.3695 99.0662 31.0024 99.5328 31.4261C99.9995 31.8445 100.547 32.0537 101.174 32.0537ZM116.773 34.9421C115.389 34.9368 114.198 34.5962 113.201 33.9203C112.208 33.2445 111.444 32.2656 110.908 30.9836C110.377 29.7017 110.114 28.1596 110.119 26.3573C110.119 24.5604 110.385 23.029 110.916 21.7632C111.452 20.4973 112.216 19.5345 113.209 18.8747C114.206 18.2096 115.394 17.8771 116.773 17.8771C118.151 17.8771 119.337 18.2096 120.329 18.8747C121.327 19.5399 122.094 20.5053 122.63 21.7712C123.167 23.0317 123.432 24.5604 123.427 26.3573C123.427 28.1649 123.159 29.7097 122.622 30.9917C122.091 32.2736 121.329 33.2525 120.337 33.9284C119.345 34.6042 118.157 34.9421 116.773 34.9421ZM116.773 32.0537C117.717 32.0537 118.471 31.579 119.034 30.6296C119.597 29.6802 119.876 28.2561 119.871 26.3573C119.871 25.1075 119.742 24.0669 119.484 23.2355C119.232 22.4041 118.873 21.7793 118.406 21.3609C117.945 20.9425 117.4 20.7333 116.773 20.7333C115.834 20.7333 115.083 21.2026 114.52 22.1413C113.957 23.08 113.673 24.4853 113.667 26.3573C113.667 27.6232 113.793 28.6798 114.045 29.5273C114.303 30.3695 114.665 31.0024 115.132 31.4261C115.598 31.8445 116.145 32.0537 116.773 32.0537Z" fill="white"/>
<path d="M95.293 204.77L95.293 252.916" stroke="white" stroke-width="0.708028" stroke-linecap="round"/>
<path d="M36.3899 215.986C35.479 215.986 34.6972 215.755 34.0445 215.294C33.3955 214.83 32.8958 214.16 32.5455 213.286C32.1988 212.409 32.0255 211.352 32.0255 210.117C32.0292 208.882 32.2044 207.831 32.551 206.964C32.9013 206.094 33.401 205.43 34.05 204.973C34.7028 204.515 35.4827 204.287 36.3899 204.287C37.297 204.287 38.0769 204.515 38.7297 204.973C39.3824 205.43 39.8821 206.094 40.2287 206.964C40.579 207.834 40.7542 208.885 40.7542 210.117C40.7542 211.356 40.579 212.414 40.2287 213.292C39.8821 214.166 39.3824 214.833 38.7297 215.294C38.0806 215.755 37.3007 215.986 36.3899 215.986ZM36.3899 214.254C37.0979 214.254 37.6566 213.906 38.0659 213.209C38.4789 212.508 38.6854 211.478 38.6854 210.117C38.6854 209.217 38.5914 208.461 38.4033 207.849C38.2152 207.237 37.9497 206.776 37.6068 206.466C37.2638 206.153 36.8582 205.996 36.3899 205.996C35.6855 205.996 35.1287 206.346 34.7193 207.047C34.31 207.744 34.1035 208.767 34.0998 210.117C34.0961 211.02 34.1865 211.78 34.3709 212.396C34.5589 213.012 34.8244 213.476 35.1674 213.79C35.5103 214.1 35.9178 214.254 36.3899 214.254ZM46.7793 215.986C45.8685 215.986 45.0867 215.755 44.434 215.294C43.785 214.83 43.2853 214.16 42.935 213.286C42.5883 212.409 42.415 211.352 42.415 210.117C42.4187 208.882 42.5939 207.831 42.9405 206.964C43.2908 206.094 43.7905 205.43 44.4395 204.973C45.0922 204.515 45.8722 204.287 46.7793 204.287C47.6865 204.287 48.4664 204.515 49.1191 204.973C49.7718 205.43 50.2715 206.094 50.6182 206.964C50.9685 207.834 51.1437 208.885 51.1437 210.117C51.1437 211.356 50.9685 212.414 50.6182 213.292C50.2715 214.166 49.7718 214.833 49.1191 215.294C48.4701 215.755 47.6902 215.986 46.7793 215.986ZM46.7793 214.254C47.4874 214.254 48.046 213.906 48.4554 213.209C48.8684 212.508 49.0749 211.478 49.0749 210.117C49.0749 209.217 48.9808 208.461 48.7928 207.849C48.6047 207.237 48.3392 206.776 47.9962 206.466C47.6533 206.153 47.2477 205.996 46.7793 205.996C46.075 205.996 45.5182 206.346 45.1088 207.047C44.6995 207.744 44.493 208.767 44.4893 210.117C44.4856 211.02 44.576 211.78 44.7603 212.396C44.9484 213.012 45.2139 213.476 45.5569 213.79C45.8998 214.1 46.3073 214.254 46.7793 214.254ZM60.7947 215.77H56.9558V204.442H60.8721C61.9968 204.442 62.963 204.668 63.7706 205.122C64.5819 205.572 65.2051 206.219 65.6402 207.063C66.0754 207.908 66.293 208.918 66.293 210.095C66.293 211.275 66.0735 212.289 65.6347 213.137C65.1996 213.985 64.5708 214.636 63.7485 215.09C62.9298 215.543 61.9452 215.77 60.7947 215.77ZM59.008 213.994H60.6951C61.4843 213.994 62.1425 213.851 62.6698 213.563C63.1972 213.272 63.5936 212.838 63.8591 212.263C64.1246 211.684 64.2574 210.961 64.2574 210.095C64.2574 209.228 64.1246 208.509 63.8591 207.937C63.5936 207.362 63.2009 206.933 62.6809 206.649C62.1646 206.361 61.523 206.217 60.756 206.217H59.008V213.994ZM68.2428 215.77V204.442H72.491C73.3612 204.442 74.0914 204.593 74.6814 204.895C75.2751 205.198 75.7232 205.622 76.0256 206.167C76.3316 206.709 76.4847 207.342 76.4847 208.065C76.4847 208.791 76.3298 209.422 76.02 209.956C75.714 210.487 75.2622 210.899 74.6648 211.19C74.0674 211.478 73.3336 211.621 72.4633 211.621H69.4376V209.918H72.1867C72.6956 209.918 73.1123 209.848 73.4368 209.708C73.7613 209.564 74.001 209.355 74.1559 209.082C74.3145 208.806 74.3938 208.467 74.3938 208.065C74.3938 207.663 74.3145 207.32 74.1559 207.036C73.9974 206.748 73.7558 206.531 73.4313 206.383C73.1068 206.232 72.6882 206.156 72.1757 206.156H70.295V215.77H68.2428ZM74.0951 210.637L76.8995 215.77H74.6095L71.8548 210.637H74.0951ZM80.4258 204.442V215.77H78.3737V204.442H80.4258Z" fill="white"/>
<path d="M36.1598 234.394C35.2489 234.394 34.4672 234.164 33.8144 233.703C33.1654 233.238 32.6657 232.569 32.3154 231.695C31.9688 230.817 31.7955 229.761 31.7955 228.526C31.7991 227.29 31.9743 226.239 32.3209 225.373C32.6713 224.502 33.171 223.839 33.82 223.381C34.4727 222.924 35.2526 222.695 36.1598 222.695C37.0669 222.695 37.8469 222.924 38.4996 223.381C39.1523 223.839 39.652 224.502 39.9986 225.373C40.3489 226.243 40.5241 227.294 40.5241 228.526C40.5241 229.765 40.3489 230.823 39.9986 231.701C39.652 232.575 39.1523 233.242 38.4996 233.703C37.8506 234.164 37.0706 234.394 36.1598 234.394ZM36.1598 232.663C36.8678 232.663 37.4265 232.315 37.8358 231.618C38.2488 230.917 38.4553 229.886 38.4553 228.526C38.4553 227.626 38.3613 226.87 38.1732 226.258C37.9852 225.646 37.7197 225.185 37.3767 224.875C37.0338 224.561 36.6281 224.405 36.1598 224.405C35.4554 224.405 34.8986 224.755 34.4893 225.456C34.08 226.153 33.8734 227.176 33.8698 228.526C33.8661 229.429 33.9564 230.189 34.1408 230.805C34.3289 231.42 34.5944 231.885 34.9373 232.198C35.2803 232.508 35.6878 232.663 36.1598 232.663ZM46.5493 234.394C45.6384 234.394 44.8566 234.164 44.2039 233.703C43.5549 233.238 43.0552 232.569 42.7049 231.695C42.3583 230.817 42.1849 229.761 42.1849 228.526C42.1886 227.29 42.3638 226.239 42.7104 225.373C43.0607 224.502 43.5604 223.839 44.2095 223.381C44.8622 222.924 45.6421 222.695 46.5493 222.695C47.4564 222.695 48.2364 222.924 48.8891 223.381C49.5418 223.839 50.0415 224.502 50.3881 225.373C50.7384 226.243 50.9136 227.294 50.9136 228.526C50.9136 229.765 50.7384 230.823 50.3881 231.701C50.0415 232.575 49.5418 233.242 48.8891 233.703C48.24 234.164 47.4601 234.394 46.5493 234.394ZM46.5493 232.663C47.2573 232.663 47.816 232.315 48.2253 231.618C48.6383 230.917 48.8448 229.886 48.8448 228.526C48.8448 227.626 48.7508 226.87 48.5627 226.258C48.3746 225.646 48.1091 225.185 47.7662 224.875C47.4232 224.561 47.0176 224.405 46.5493 224.405C45.8449 224.405 45.2881 224.755 44.8788 225.456C44.4694 226.153 44.2629 227.176 44.2592 228.526C44.2555 229.429 44.3459 230.189 44.5303 230.805C44.7183 231.42 44.9839 231.885 45.3268 232.198C45.6698 232.508 46.0772 232.663 46.5493 232.663ZM62.8823 225.964C62.8307 225.481 62.6131 225.105 62.2296 224.836C61.8498 224.567 61.3556 224.432 60.7471 224.432C60.3194 224.432 59.9525 224.497 59.6464 224.626C59.3403 224.755 59.1061 224.93 58.9439 225.151C58.7816 225.373 58.6987 225.625 58.695 225.909C58.695 226.145 58.7484 226.35 58.8554 226.523C58.966 226.696 59.1154 226.844 59.3034 226.966C59.4915 227.084 59.6999 227.183 59.9285 227.264C60.1571 227.346 60.3876 227.414 60.6199 227.469L61.682 227.735C62.1097 227.834 62.5209 227.969 62.9155 228.138C63.3137 228.308 63.6696 228.522 63.9831 228.78C64.3002 229.038 64.551 229.35 64.7353 229.715C64.9197 230.08 65.0119 230.508 65.0119 230.998C65.0119 231.662 64.8423 232.246 64.503 232.752C64.1637 233.253 63.6733 233.646 63.0316 233.93C62.3937 234.21 61.6211 234.35 60.714 234.35C59.8326 234.35 59.0674 234.214 58.4184 233.941C57.7731 233.668 57.2679 233.27 56.9028 232.746C56.5414 232.222 56.3459 231.584 56.3164 230.832H58.3354C58.3649 231.227 58.4866 231.555 58.7005 231.817C58.9144 232.079 59.1928 232.274 59.5358 232.403C59.8824 232.532 60.2696 232.597 60.6974 232.597C61.1436 232.597 61.5345 232.53 61.87 232.398C62.2093 232.261 62.4748 232.073 62.6666 231.833C62.8583 231.59 62.956 231.306 62.9597 230.982C62.956 230.687 62.8694 230.443 62.6998 230.251C62.5301 230.056 62.2923 229.894 61.9862 229.765C61.6838 229.632 61.3298 229.514 60.9242 229.411L59.6353 229.079C58.7023 228.839 57.9648 228.476 57.4227 227.989C56.8843 227.499 56.6151 226.848 56.6151 226.036C56.6151 225.369 56.7958 224.784 57.1572 224.283C57.5223 223.781 58.0183 223.392 58.6452 223.116C59.2721 222.836 59.982 222.695 60.7748 222.695C61.5787 222.695 62.2831 222.836 62.8878 223.116C63.4963 223.392 63.9738 223.778 64.3205 224.272C64.6671 224.762 64.846 225.327 64.857 225.964H62.8823ZM66.8414 234.179V222.85H68.8936V227.646H74.143V222.85H76.2007V234.179H74.143V229.366H68.8936V234.179H66.8414ZM88.5552 228.514C88.5552 229.735 88.3266 230.781 87.8693 231.651C87.4157 232.517 86.7962 233.181 86.0107 233.642C85.229 234.103 84.3421 234.334 83.3501 234.334C82.3581 234.334 81.4694 234.103 80.6839 233.642C79.9022 233.178 79.2826 232.512 78.8254 231.645C78.3718 230.775 78.145 229.731 78.145 228.514C78.145 227.294 78.3718 226.25 78.8254 225.384C79.2826 224.513 79.9022 223.848 80.6839 223.387C81.4694 222.926 82.3581 222.695 83.3501 222.695C84.3421 222.695 85.229 222.926 86.0107 223.387C86.7962 223.848 87.4157 224.513 87.8693 225.384C88.3266 226.25 88.5552 227.294 88.5552 228.514ZM86.492 228.514C86.492 227.655 86.3574 226.931 86.0882 226.341C85.8227 225.747 85.4539 225.299 84.9819 224.996C84.5099 224.69 83.9659 224.537 83.3501 224.537C82.7343 224.537 82.1903 224.69 81.7183 224.996C81.2463 225.299 80.8757 225.747 80.6065 226.341C80.341 226.931 80.2082 227.655 80.2082 228.514C80.2082 229.374 80.341 230.1 80.6065 230.694C80.8757 231.284 81.2463 231.732 81.7183 232.038C82.1903 232.34 82.7343 232.492 83.3501 232.492C83.9659 232.492 84.5099 232.34 84.9819 232.038C85.4539 231.732 85.8227 231.284 86.0882 230.694C86.3574 230.1 86.492 229.374 86.492 228.514Z" fill="white"/>
<path d="M36.2526 252.803C35.3418 252.803 34.56 252.573 33.9073 252.112C33.2583 251.647 32.7586 250.978 32.4083 250.104C32.0616 249.226 31.8883 248.17 31.8883 246.934C31.892 245.699 32.0672 244.648 32.4138 243.781C32.7641 242.911 33.2638 242.247 33.9128 241.79C34.5655 241.333 35.3455 241.104 36.2526 241.104C37.1598 241.104 37.9397 241.333 38.5924 241.79C39.2452 242.247 39.7448 242.911 40.0915 243.781C40.4418 244.652 40.617 245.703 40.617 246.934C40.617 248.173 40.4418 249.232 40.0915 250.109C39.7448 250.983 39.2452 251.651 38.5924 252.112C37.9434 252.573 37.1635 252.803 36.2526 252.803ZM36.2526 251.072C36.9607 251.072 37.5193 250.723 37.9287 250.026C38.3417 249.326 38.5482 248.295 38.5482 246.934C38.5482 246.034 38.4542 245.278 38.2661 244.666C38.078 244.054 37.8125 243.593 37.4696 243.283C37.1266 242.97 36.721 242.813 36.2526 242.813C35.5483 242.813 34.9915 243.164 34.5821 243.864C34.1728 244.561 33.9663 245.585 33.9626 246.934C33.9589 247.838 34.0493 248.597 34.2336 249.213C34.4217 249.829 34.6872 250.294 35.0302 250.607C35.3731 250.917 35.7806 251.072 36.2526 251.072ZM46.6421 252.803C45.7313 252.803 44.9495 252.573 44.2968 252.112C43.6477 251.647 43.1481 250.978 42.7977 250.104C42.4511 249.226 42.2778 248.17 42.2778 246.934C42.2815 245.699 42.4566 244.648 42.8033 243.781C43.1536 242.911 43.6533 242.247 44.3023 241.79C44.955 241.333 45.7349 241.104 46.6421 241.104C47.5493 241.104 48.3292 241.333 48.9819 241.79C49.6346 242.247 50.1343 242.911 50.4809 243.781C50.8313 244.652 51.0064 245.703 51.0064 246.934C51.0064 248.173 50.8313 249.232 50.4809 250.109C50.1343 250.983 49.6346 251.651 48.9819 252.112C48.3329 252.573 47.553 252.803 46.6421 252.803ZM46.6421 251.072C47.3501 251.072 47.9088 250.723 48.3181 250.026C48.7312 249.326 48.9377 248.295 48.9377 246.934C48.9377 246.034 48.8436 245.278 48.6556 244.666C48.4675 244.054 48.202 243.593 47.859 243.283C47.5161 242.97 47.1104 242.813 46.6421 242.813C45.9378 242.813 45.3809 243.164 44.9716 243.864C44.5623 244.561 44.3558 245.585 44.3521 246.934C44.3484 247.838 44.4387 248.597 44.6231 249.213C44.8112 249.829 45.0767 250.294 45.4197 250.607C45.7626 250.917 46.1701 251.072 46.6421 251.072ZM56.8186 252.587V241.259H61.0668C61.9371 241.259 62.6672 241.421 63.2572 241.746C63.851 242.07 64.299 242.516 64.6014 243.084C64.9075 243.649 65.0605 244.29 65.0605 245.009C65.0605 245.736 64.9075 246.381 64.6014 246.945C64.2953 247.51 63.8436 247.954 63.2462 248.278C62.6488 248.599 61.9131 248.76 61.0391 248.76H58.2236V247.073H60.7626C61.2714 247.073 61.6882 246.984 62.0127 246.807C62.3372 246.63 62.5769 246.387 62.7318 246.077C62.8903 245.767 62.9696 245.411 62.9696 245.009C62.9696 244.607 62.8903 244.253 62.7318 243.947C62.5769 243.641 62.3353 243.403 62.0071 243.234C61.6826 243.06 61.2641 242.974 60.7515 242.974H58.8708V252.587H56.8186ZM67.0352 252.587H64.8448L68.833 241.259H71.3664L75.3601 252.587H73.1696L70.1439 243.582H70.0554L67.0352 252.587ZM67.1071 248.146H73.0811V249.794H67.1071V248.146ZM82.8262 244.373C82.7746 243.89 82.557 243.514 82.1735 243.245C81.7936 242.976 81.2995 242.841 80.691 242.841C80.2633 242.841 79.8964 242.905 79.5903 243.035C79.2842 243.164 79.05 243.339 78.8878 243.56C78.7255 243.781 78.6426 244.034 78.6389 244.318C78.6389 244.554 78.6923 244.759 78.7993 244.932C78.9099 245.105 79.0593 245.253 79.2473 245.374C79.4354 245.492 79.6437 245.592 79.8724 245.673C80.101 245.754 80.3315 245.822 80.5638 245.878L81.6259 246.143C82.0536 246.243 82.4648 246.377 82.8594 246.547C83.2576 246.717 83.6135 246.931 83.9269 247.189C84.2441 247.447 84.4948 247.758 84.6792 248.124C84.8636 248.489 84.9558 248.916 84.9558 249.407C84.9558 250.071 84.7862 250.655 84.4469 251.16C84.1076 251.662 83.6172 252.055 82.9755 252.338C82.3376 252.619 81.565 252.759 80.6578 252.759C79.7765 252.759 79.0113 252.622 78.3623 252.35C77.717 252.077 77.2117 251.678 76.8467 251.155C76.4853 250.631 76.2898 249.993 76.2603 249.241H78.2793C78.3088 249.635 78.4305 249.964 78.6444 250.225C78.8583 250.487 79.1367 250.683 79.4796 250.812C79.8263 250.941 80.2135 251.005 80.6413 251.005C81.0875 251.005 81.4784 250.939 81.8139 250.806C82.1532 250.67 82.4187 250.482 82.6105 250.242C82.8022 249.999 82.8999 249.715 82.9036 249.39C82.8999 249.095 82.8133 248.852 82.6436 248.66C82.474 248.465 82.2362 248.302 81.9301 248.173C81.6277 248.041 81.2737 247.923 80.868 247.819L79.5792 247.487C78.6462 247.248 77.9087 246.884 77.3666 246.398C76.8282 245.907 76.559 245.256 76.559 244.445C76.559 243.778 76.7397 243.193 77.1011 242.692C77.4662 242.19 77.9622 241.801 78.5891 241.524C79.216 241.244 79.9259 241.104 80.7187 241.104C81.5226 241.104 82.2269 241.244 82.8317 241.524C83.4402 241.801 83.9177 242.186 84.2644 242.681C84.611 243.171 84.7899 243.735 84.8009 244.373H82.8262Z" fill="white"/>
<path d="M108.416 215.986C107.505 215.986 106.724 215.755 106.071 215.294C105.422 214.83 104.922 214.16 104.572 213.286C104.225 212.409 104.052 211.352 104.052 210.117C104.056 208.882 104.231 207.831 104.577 206.964C104.928 206.094 105.427 205.43 106.076 204.973C106.729 204.515 107.509 204.287 108.416 204.287C109.323 204.287 110.103 204.515 110.756 204.973C111.409 205.43 111.908 206.094 112.255 206.964C112.605 207.834 112.78 208.885 112.78 210.117C112.78 211.356 112.605 212.414 112.255 213.292C111.908 214.166 111.409 214.833 110.756 215.294C110.107 215.755 109.327 215.986 108.416 215.986ZM108.416 214.254C109.124 214.254 109.683 213.906 110.092 213.209C110.505 212.508 110.712 211.478 110.712 210.117C110.712 209.217 110.618 208.461 110.43 207.849C110.242 207.237 109.976 206.776 109.633 206.466C109.29 206.153 108.884 205.996 108.416 205.996C107.712 205.996 107.155 206.346 106.746 207.047C106.336 207.744 106.13 208.767 106.126 210.117C106.122 211.02 106.213 211.78 106.397 212.396C106.585 213.012 106.851 213.476 107.194 213.79C107.537 214.1 107.944 214.254 108.416 214.254ZM118.806 215.986C117.895 215.986 117.113 215.755 116.46 215.294C115.811 214.83 115.312 214.16 114.961 213.286C114.615 212.409 114.441 211.352 114.441 210.117C114.445 208.882 114.62 207.831 114.967 206.964C115.317 206.094 115.817 205.43 116.466 204.973C117.119 204.515 117.898 204.287 118.806 204.287C119.713 204.287 120.493 204.515 121.145 204.973C121.798 205.43 122.298 206.094 122.644 206.964C122.995 207.834 123.17 208.885 123.17 210.117C123.17 211.356 122.995 212.414 122.644 213.292C122.298 214.166 121.798 214.833 121.145 215.294C120.496 215.755 119.716 215.986 118.806 215.986ZM118.806 214.254C119.514 214.254 120.072 213.906 120.482 213.209C120.895 212.508 121.101 211.478 121.101 210.117C121.101 209.217 121.007 208.461 120.819 207.849C120.631 207.237 120.366 206.776 120.023 206.466C119.68 206.153 119.274 205.996 118.806 205.996C118.101 205.996 117.544 206.346 117.135 207.047C116.726 207.744 116.519 208.767 116.516 210.117C116.512 211.02 116.602 211.78 116.787 212.396C116.975 213.012 117.24 213.476 117.583 213.79C117.926 214.1 118.334 214.254 118.806 214.254ZM128.982 215.77V204.442H133.23C134.101 204.442 134.831 204.604 135.421 204.928C136.014 205.253 136.463 205.699 136.765 206.267C137.071 206.831 137.224 207.473 137.224 208.192C137.224 208.918 137.071 209.564 136.765 210.128C136.459 210.692 136.007 211.136 135.41 211.461C134.812 211.782 134.077 211.942 133.203 211.942H130.387V210.255H132.926C133.435 210.255 133.852 210.167 134.176 209.99C134.501 209.813 134.74 209.569 134.895 209.259C135.054 208.95 135.133 208.594 135.133 208.192C135.133 207.79 135.054 207.436 134.895 207.13C134.74 206.824 134.499 206.586 134.171 206.416C133.846 206.243 133.428 206.156 132.915 206.156H131.034V215.77H128.982ZM139.199 215.77H137.008L140.996 204.442H143.53L147.524 215.77H145.333L142.307 206.765H142.219L139.199 215.77ZM139.271 211.328H145.245V212.977H139.271V211.328ZM158.18 208.264H156.111C156.052 207.925 155.943 207.624 155.785 207.362C155.626 207.097 155.429 206.872 155.193 206.687C154.957 206.503 154.688 206.365 154.385 206.272C154.087 206.177 153.764 206.129 153.417 206.129C152.802 206.129 152.256 206.284 151.78 206.593C151.304 206.899 150.932 207.349 150.663 207.943C150.394 208.533 150.259 209.254 150.259 210.106C150.259 210.972 150.394 211.703 150.663 212.296C150.936 212.886 151.308 213.332 151.78 213.635C152.256 213.934 152.8 214.083 153.412 214.083C153.751 214.083 154.068 214.039 154.363 213.95C154.662 213.858 154.929 213.723 155.165 213.546C155.405 213.369 155.606 213.152 155.768 212.894C155.934 212.636 156.049 212.341 156.111 212.009L158.18 212.02C158.103 212.558 157.935 213.063 157.677 213.535C157.422 214.007 157.088 214.424 156.675 214.785C156.262 215.143 155.779 215.423 155.226 215.626C154.673 215.825 154.059 215.925 153.384 215.925C152.389 215.925 151.5 215.694 150.718 215.233C149.936 214.773 149.32 214.107 148.871 213.237C148.421 212.366 148.196 211.323 148.196 210.106C148.196 208.885 148.422 207.842 148.876 206.975C149.33 206.105 149.947 205.439 150.729 204.978C151.511 204.517 152.396 204.287 153.384 204.287C154.015 204.287 154.601 204.375 155.143 204.552C155.685 204.729 156.168 204.989 156.592 205.332C157.017 205.671 157.365 206.088 157.638 206.582C157.914 207.073 158.095 207.633 158.18 208.264Z" fill="white"/>
<path d="M108.517 234.394C107.606 234.394 106.824 234.164 106.172 233.703C105.523 233.238 105.023 232.569 104.673 231.695C104.326 230.817 104.153 229.761 104.153 228.526C104.156 227.29 104.332 226.239 104.678 225.373C105.029 224.502 105.528 223.839 106.177 223.381C106.83 222.924 107.61 222.695 108.517 222.695C109.424 222.695 110.204 222.924 110.857 223.381C111.51 223.839 112.009 224.502 112.356 225.373C112.706 226.243 112.881 227.294 112.881 228.526C112.881 229.765 112.706 230.823 112.356 231.701C112.009 232.575 111.51 233.242 110.857 233.703C110.208 234.164 109.428 234.394 108.517 234.394ZM108.517 232.663C109.225 232.663 109.784 232.315 110.193 231.618C110.606 230.917 110.813 229.886 110.813 228.526C110.813 227.626 110.719 226.87 110.53 226.258C110.342 225.646 110.077 225.185 109.734 224.875C109.391 224.561 108.985 224.405 108.517 224.405C107.813 224.405 107.256 224.755 106.847 225.456C106.437 226.153 106.231 227.176 106.227 228.526C106.223 229.429 106.314 230.189 106.498 230.805C106.686 231.42 106.952 231.885 107.295 232.198C107.638 232.508 108.045 232.663 108.517 232.663ZM118.906 234.394C117.996 234.394 117.214 234.164 116.561 233.703C115.912 233.238 115.412 232.569 115.062 231.695C114.715 230.817 114.542 229.761 114.542 228.526C114.546 227.29 114.721 226.239 115.068 225.373C115.418 224.502 115.918 223.839 116.567 223.381C117.219 222.924 117.999 222.695 118.906 222.695C119.814 222.695 120.594 222.924 121.246 223.381C121.899 223.839 122.399 224.502 122.745 225.373C123.096 226.243 123.271 227.294 123.271 228.526C123.271 229.765 123.096 230.823 122.745 231.701C122.399 232.575 121.899 233.242 121.246 233.703C120.597 234.164 119.817 234.394 118.906 234.394ZM118.906 232.663C119.615 232.663 120.173 232.315 120.583 231.618C120.996 230.917 121.202 229.886 121.202 228.526C121.202 227.626 121.108 226.87 120.92 226.258C120.732 225.646 120.466 225.185 120.123 224.875C119.78 224.561 119.375 224.405 118.906 224.405C118.202 224.405 117.645 224.755 117.236 225.456C116.827 226.153 116.62 227.176 116.616 228.526C116.613 229.429 116.703 230.189 116.888 230.805C117.076 231.42 117.341 231.885 117.684 232.198C118.027 232.508 118.434 232.663 118.906 232.663ZM132.922 234.179H129.083V222.85H132.999C134.124 222.85 135.09 223.077 135.898 223.531C136.709 223.981 137.332 224.628 137.767 225.472C138.203 226.317 138.42 227.327 138.42 228.503C138.42 229.683 138.201 230.698 137.762 231.546C137.327 232.394 136.698 233.045 135.876 233.498C135.057 233.952 134.072 234.179 132.922 234.179ZM131.135 232.403H132.822C133.611 232.403 134.27 232.259 134.797 231.972C135.324 231.68 135.721 231.247 135.986 230.672C136.252 230.093 136.385 229.37 136.385 228.503C136.385 227.637 136.252 226.918 135.986 226.346C135.721 225.771 135.328 225.341 134.808 225.057C134.292 224.77 133.65 224.626 132.883 224.626H131.135V232.403ZM140.37 234.179V222.85H147.738V224.571H142.422V227.646H147.356V229.366H142.422V232.458H147.782V234.179H140.37ZM149.832 234.179V222.85H157.089V224.571H151.884V227.646H156.591V229.366H151.884V234.179H149.832Z" fill="white"/>
<path d="M107.765 252.803C106.854 252.803 106.072 252.573 105.419 252.112C104.77 251.647 104.271 250.978 103.92 250.104C103.574 249.226 103.4 248.17 103.4 246.934C103.404 245.699 103.579 244.648 103.926 243.781C104.276 242.911 104.776 242.247 105.425 241.79C106.078 241.333 106.858 241.104 107.765 241.104C108.672 241.104 109.452 241.333 110.105 241.79C110.757 242.247 111.257 242.911 111.604 243.781C111.954 244.652 112.129 245.703 112.129 246.934C112.129 248.173 111.954 249.232 111.604 250.109C111.257 250.983 110.757 251.651 110.105 252.112C109.456 252.573 108.676 252.803 107.765 252.803ZM107.765 251.072C108.473 251.072 109.031 250.723 109.441 250.026C109.854 249.326 110.06 248.295 110.06 246.934C110.06 246.034 109.966 245.278 109.778 244.666C109.59 244.054 109.325 243.593 108.982 243.283C108.639 242.97 108.233 242.813 107.765 242.813C107.06 242.813 106.504 243.164 106.094 243.864C105.685 244.561 105.478 245.585 105.475 246.934C105.471 247.838 105.561 248.597 105.746 249.213C105.934 249.829 106.199 250.294 106.542 250.607C106.885 250.917 107.293 251.072 107.765 251.072ZM118.154 252.803C117.243 252.803 116.462 252.573 115.809 252.112C115.16 251.647 114.66 250.978 114.31 250.104C113.963 249.226 113.79 248.17 113.79 246.934C113.794 245.699 113.969 244.648 114.315 243.781C114.666 242.911 115.165 242.247 115.814 241.79C116.467 241.333 117.247 241.104 118.154 241.104C119.061 241.104 119.841 241.333 120.494 241.79C121.147 242.247 121.646 242.911 121.993 243.781C122.343 244.652 122.519 245.703 122.519 246.934C122.519 248.173 122.343 249.232 121.993 250.109C121.646 250.983 121.147 251.651 120.494 252.112C119.845 252.573 119.065 252.803 118.154 252.803ZM118.154 251.072C118.862 251.072 119.421 250.723 119.83 250.026C120.243 249.326 120.45 248.295 120.45 246.934C120.45 246.034 120.356 245.278 120.168 244.666C119.98 244.054 119.714 243.593 119.371 243.283C119.028 242.97 118.623 242.813 118.154 242.813C117.45 242.813 116.893 243.164 116.484 243.864C116.074 244.561 115.868 245.585 115.864 246.934C115.861 247.838 115.951 248.597 116.135 249.213C116.323 249.829 116.589 250.294 116.932 250.607C117.275 250.917 117.682 251.072 118.154 251.072ZM128.331 252.587V241.259H132.579C133.449 241.259 134.179 241.421 134.769 241.746C135.363 242.07 135.811 242.516 136.114 243.084C136.42 243.649 136.573 244.29 136.573 245.009C136.573 245.736 136.42 246.381 136.114 246.945C135.807 247.51 135.356 247.954 134.758 248.278C134.161 248.599 133.425 248.76 132.551 248.76H129.736V247.073H132.275C132.784 247.073 133.2 246.984 133.525 246.807C133.849 246.63 134.089 246.387 134.244 246.077C134.402 245.767 134.482 245.411 134.482 245.009C134.482 244.607 134.402 244.253 134.244 243.947C134.089 243.641 133.847 243.403 133.519 243.234C133.195 243.06 132.776 242.974 132.264 242.974H130.383V252.587H128.331ZM138.355 252.587V241.259H140.407V246.055H145.657V241.259H147.714V252.587H145.657V247.775H140.407V252.587H138.355ZM149.172 241.259H151.49L154.261 246.27H154.371L157.143 241.259H159.46L155.339 248.361V252.587H153.293V248.361L149.172 241.259Z" fill="white"/>
<path d="M27.8551 87.5279C26.2983 87.5219 24.9587 87.1387 23.8363 86.3784C22.7199 85.6181 21.86 84.5168 21.2566 83.0746C20.6592 81.6324 20.3635 79.8975 20.3696 77.87C20.3696 75.8485 20.6683 74.1257 21.2656 72.7016C21.8691 71.2775 22.729 70.1943 23.8453 69.4521C24.9677 68.7038 26.3043 68.3297 27.8551 68.3297C29.406 68.3297 30.7395 68.7038 31.8559 69.4521C32.9783 70.2004 33.8412 71.2865 34.4446 72.7106C35.048 74.1287 35.3467 75.8485 35.3407 77.87C35.3407 79.9036 35.039 81.6414 34.4356 83.0836C33.8382 84.5258 32.9813 85.6271 31.8649 86.3874C30.7486 87.1478 29.412 87.5279 27.8551 87.5279ZM27.8551 84.2784C28.9172 84.2784 29.765 83.7444 30.3986 82.6763C31.0322 81.6082 31.346 80.0061 31.34 77.87C31.34 76.464 31.1951 75.2933 30.9055 74.358C30.6219 73.4227 30.2176 72.7197 29.6926 72.249C29.1736 71.7783 28.5611 71.543 27.8551 71.543C26.7991 71.543 25.9543 72.071 25.3207 73.127C24.6871 74.183 24.3673 75.764 24.3613 77.87C24.3613 79.2941 24.5031 80.4828 24.7867 81.4363C25.0763 82.3837 25.4836 83.0957 26.0086 83.5724C26.5336 84.0431 27.1491 84.2784 27.8551 84.2784ZM45.4037 87.5279C43.8468 87.5219 42.5072 87.1387 41.3848 86.3784C40.2685 85.6181 39.4086 84.5168 38.8052 83.0746C38.2078 81.6324 37.9121 79.8975 37.9181 77.87C37.9181 75.8485 38.2168 74.1257 38.8142 72.7016C39.4177 71.2775 40.2775 70.1943 41.3939 69.4521C42.5163 68.7038 43.8529 68.3297 45.4037 68.3297C46.9545 68.3297 48.2881 68.7038 49.4045 69.4521C50.5268 70.2004 51.3898 71.2865 51.9932 72.7106C52.5966 74.1287 52.8953 75.8485 52.8893 77.87C52.8893 79.9036 52.5876 81.6414 51.9841 83.0836C51.3867 84.5258 50.5299 85.6271 49.4135 86.3874C48.2972 87.1478 46.9606 87.5279 45.4037 87.5279ZM45.4037 84.2784C46.4657 84.2784 47.3136 83.7444 47.9472 82.6763C48.5808 81.6082 48.8946 80.0061 48.8885 77.87C48.8885 76.464 48.7437 75.2933 48.4541 74.358C48.1704 73.4227 47.7661 72.7197 47.2412 72.249C46.7222 71.7783 46.1097 71.543 45.4037 71.543C44.3477 71.543 43.5029 72.071 42.8693 73.127C42.2357 74.183 41.9159 75.764 41.9098 77.87C41.9098 79.2941 42.0516 80.4828 42.3353 81.4363C42.6249 82.3837 43.0322 83.0957 43.5572 83.5724C44.0822 84.0431 44.6977 84.2784 45.4037 84.2784Z" fill="white"/>
<path d="M20.2422 90.7773H54.2275" stroke="white" stroke-width="0.708028" stroke-linecap="round"/>
<path d="M22.6276 95.3756L25.1198 99.5875H25.2163L27.7206 95.3756H30.6714L26.8999 101.555L30.7559 107.734H27.7508L25.2163 103.516H25.1198L22.5854 107.734H19.5924L23.4604 101.555L19.6648 95.3756H22.6276ZM34.7747 95.3756L37.2669 99.5875H37.3634L39.8677 95.3756H42.8185L39.047 101.555L42.903 107.734H39.8979L37.3634 103.516H37.2669L34.7325 107.734H31.7395L35.6075 101.555L31.8119 95.3756H34.7747ZM46.9218 95.3756L49.414 99.5875H49.5105L52.0148 95.3756H54.9656L51.1941 101.555L55.0501 107.734H52.045L49.5105 103.516H49.414L46.8796 107.734H43.8865L47.7546 101.555L43.959 95.3756H46.9218Z" fill="white"/>
<path d="M20.2422 112.727H54.2275" stroke="white" stroke-width="0.708028" stroke-linecap="round"/>
<path d="M45.2971 127.996V116.667H49.7665C50.6221 116.667 51.3522 116.82 51.957 117.126C52.5654 117.429 53.0282 117.858 53.3454 118.415C53.6662 118.968 53.8266 119.619 53.8266 120.368C53.8266 121.12 53.6644 121.767 53.3399 122.309C53.0153 122.848 52.5452 123.261 51.9293 123.548C51.3172 123.836 50.576 123.98 49.7057 123.98H46.7132V122.055H49.3185C49.7757 122.055 50.1556 121.992 50.458 121.867C50.7603 121.741 50.9853 121.553 51.1328 121.303C51.284 121.052 51.3596 120.74 51.3596 120.368C51.3596 119.992 51.284 119.674 51.1328 119.416C50.9853 119.158 50.7585 118.963 50.4524 118.83C50.15 118.694 49.7684 118.625 49.3074 118.625H47.6922V127.996H45.2971ZM51.4149 122.84L54.2304 127.996H51.5864L48.8317 122.84H51.4149Z" fill="white"/>
<path d="M19.7375 125.294L19.8507 125.142L19.9443 125.304C20.5554 126.366 22.5871 127.001 24.1983 127.001C26.2499 127.001 36.3789 126.719 37.6976 126.65C37.9583 126.636 38.2305 126.629 38.5545 126.629C38.7555 126.629 38.9421 126.632 39.1226 126.634C39.2793 126.636 39.4272 126.638 39.5662 126.638C39.9998 126.638 40.3563 126.532 40.6166 126.454C40.7853 126.404 40.9185 126.364 41.0289 126.364C41.114 126.364 41.1829 126.388 41.2338 126.435C41.3005 126.497 41.3304 126.593 41.328 126.738C41.3078 127.986 40.585 128.083 39.5661 128.083C39.4262 128.083 39.2772 128.081 39.1193 128.079C38.9397 128.077 38.7539 128.074 38.5545 128.074C38.2354 128.074 37.9676 128.081 37.7116 128.095C36.3914 128.164 26.252 128.446 24.1983 128.446C23.1559 128.446 22.0036 128.193 21.116 127.769C20.0945 127.281 19.5319 126.624 19.5319 125.92C19.5319 125.688 19.6011 125.477 19.7375 125.294Z" fill="white"/>
<path d="M39.7027 126.038C39.5638 126.038 39.416 126.036 39.2593 126.034C39.0811 126.032 38.8967 126.03 38.6989 126.03C38.3817 126.03 38.1161 126.036 37.8626 126.05C36.5527 126.119 26.4921 126.401 24.4541 126.401C23.4195 126.401 22.2759 126.148 21.3949 125.724C20.3812 125.236 19.823 124.579 19.823 123.875C19.823 122.854 21.097 122.524 22.4458 122.175C23.1812 121.984 23.9416 121.788 24.5842 121.473C24.8736 121.33 25.3149 121.124 25.8527 120.878C25.8518 120.864 25.8503 120.85 25.8503 120.835C25.8503 120.415 26.2243 120.073 26.6841 120.073C26.8904 120.073 27.0791 120.142 27.2249 120.256C27.4196 120.168 27.6193 120.079 27.8225 119.988C27.8406 119.582 28.2063 119.257 28.6544 119.257C28.8286 119.257 28.9983 119.307 29.1395 119.4C29.3216 119.319 29.5041 119.238 29.686 119.157C29.6821 119.128 29.6796 119.098 29.6796 119.067C29.6796 118.647 30.0535 118.305 30.5133 118.305C30.6231 118.305 30.7319 118.324 30.8333 118.363C30.9347 118.402 31.0268 118.458 31.1041 118.53C32.2247 118.035 33.3462 117.542 34.4687 117.05C34.5482 117.001 34.6369 116.975 34.7259 116.975C34.8694 116.975 35.0073 117.038 35.095 117.146L36.0767 118.349C36.2082 118.512 36.2598 118.677 36.2302 118.838C36.1716 119.157 35.8116 119.383 35.5224 119.564C35.4072 119.637 35.236 119.744 35.2085 119.797L35.2097 119.798C35.3697 119.941 35.8832 120.154 36.6422 120.154C37.081 120.154 37.5434 120.077 37.9793 119.932C38.5128 119.754 38.7333 119.267 38.9103 118.875C39.0584 118.547 39.1864 118.265 39.4706 118.265C39.6863 118.265 39.9358 118.442 40.3062 118.858C41.5652 120.321 41.5064 122.557 41.4634 124.19C41.4588 124.365 41.4544 124.533 41.4518 124.693C41.4318 125.941 40.7143 126.038 39.7027 126.038ZM29.1503 121.501C29.1503 121.501 28.9889 121.355 28.7893 121.409C28.6155 121.457 28.2048 121.558 27.9535 121.615C27.7386 121.664 27.9326 121.818 27.9326 121.818L31.195 124.549C31.1976 124.551 31.3303 124.662 31.5317 124.662C31.8567 124.662 32.4868 124.66 32.7436 124.66C32.957 124.66 32.7799 124.495 32.7799 124.495C32.7799 124.495 29.1508 121.501 29.1503 121.501ZM31.6344 120.856C31.6335 120.856 31.3826 120.629 31.0805 120.717C30.9273 120.761 30.5678 120.843 30.3385 120.901C30.1425 120.951 30.3504 121.136 30.3505 121.137L34.3889 124.485C34.3917 124.487 34.4851 124.641 34.7998 124.641C35.155 124.641 35.8328 124.656 36.1101 124.656C36.2668 124.656 36.1275 124.502 36.1276 124.502L31.6344 120.856Z" fill="white"/>
<rect x="95.647" y="58.5625" width="77.175" height="78.591" rx="6.72626" stroke="white" stroke-width="0.708028"/>
<path d="M162.263 126.468C162.263 126.673 162.263 126.873 162.263 127.073C162.31 130.38 160.132 131.593 156.213 130.404C155.682 130.233 155.236 129.925 154.947 129.528C154.041 128.1 153.325 127.763 152.094 129.404C151.783 129.73 151.388 129.999 150.937 130.191C150.485 130.383 149.988 130.494 149.478 130.518C138.997 130.594 128.514 130.594 118.03 130.518C117.101 130.518 115.911 129.852 115.313 129.209C114.307 128.124 113.727 127.986 112.803 129.209C111.815 130.504 107.299 131.213 105.914 130.275C105.694 130.084 105.523 129.859 105.413 129.613C105.302 129.368 105.253 129.108 105.268 128.848C105.434 125.916 105.34 107.313 106.085 104.467C106.624 102.812 107.92 101.381 109.714 100.461C113.052 98.8998 116.816 97.9528 120.368 96.6537C122.144 96.0113 123.807 95.0786 125.624 94.4885C126.524 94.1982 127.915 94.065 128.655 94.4267C132.271 96.1874 135.71 96.2302 139.096 94.1554C140.114 93.532 140.765 93.4559 141.842 94.2363C143.15 95.1404 144.631 95.8684 146.228 96.392C149.128 97.3866 152.147 98.1099 155.107 99.0807C159.368 100.508 162.067 102.888 162.002 106.842C162.002 108.17 162.215 125.112 162.334 126.444L162.263 126.468Z" fill="white"/>
<path d="M122.059 76.952C122.059 70.0594 127.122 65.7365 134.89 66.0125C141.675 66.2559 146.224 71.3416 145.745 78.0936C145.439 82.3756 143.839 86.496 141.125 89.9962C137.014 95.4065 130.317 95.2117 126.436 89.6337C123.694 85.8707 122.176 81.473 122.059 76.952Z" fill="white"/>
<defs>
<linearGradient id="paint0_linear_156_3417" x1="96.0017" y1="0.149902" x2="96.0017" y2="308.85" gradientUnits="userSpaceOnUse">
<stop stop-color="#00D09F"/>
<stop offset="1" stop-color="#00785C"/>
</linearGradient>
</defs>
</svg>
